<?xml version="1.0" standalone="no"?><!-- Generator: Gravit.io --><svg xmlns="http://www.w3.org/2000/svg" xmlns:xlink="http://www.w3.org/1999/xlink" style="isolation:isolate" viewBox="0 0 450 450" width="450" height="450"><defs><clipPath id="_clipPath_RDY2U0hJ7aA43PGvhJpNdqjK6IyzQDFi"><rect width="450" height="450"/></clipPath></defs><g clip-path="url(#_clipPath_RDY2U0hJ7aA43PGvhJpNdqjK6IyzQDFi)"><path d=" M 195.984 29 C 184.807 29 174.427 34.923 168.751 44.551 L 158.548 61.872 L 129.216 66.537 C 123.754 60.488 116.13 56.372 107.343 57.732 L 88.378 60.671 C 76.069 62.606 66.99 73.199 66.961 85.66 L 66.961 243.933 C 66.961 257.822 78.359 269.22 92.247 269.22 L 162.973 269.22 C 162.212 271.242 161.81 273.381 161.784 275.541 C 161.784 285.94 170.35 294.506 180.749 294.506 L 183.29 294.506 C 185.917 303.102 191.037 310.726 198.001 316.41 L 137.484 411.221 C 135.609 414.168 136.478 418.076 139.425 419.951 C 142.372 421.826 146.28 420.957 148.155 418.01 L 208.905 322.839 C 212.003 324.116 215.252 325.071 218.678 325.583 L 218.678 414.616 C 218.678 418.107 221.509 420.937 225 420.937 C 228.491 420.937 231.322 418.107 231.322 414.616 L 231.322 325.583 C 234.68 325.067 237.964 324.146 241.101 322.839 L 301.851 418.01 C 303.051 419.945 305.198 421.085 307.473 420.995 C 309.747 420.905 311.798 419.6 312.841 417.577 C 313.885 415.554 313.761 413.127 312.516 411.221 L 251.993 316.41 C 258.959 310.727 264.081 303.103 266.71 294.506 L 269.251 294.506 C 279.65 294.506 288.216 285.94 288.216 275.541 C 288.216 273.316 287.748 271.211 287.027 269.22 L 357.753 269.22 C 371.641 269.22 383.039 257.822 383.039 243.933 L 383.039 90.117 C 383.039 77.663 373.854 66.98 361.533 65.115 L 350.597 63.459 C 348.681 58.787 345.356 54.798 340.071 53.913 L 321.132 50.753 L 321.119 50.753 C 315.563 49.83 310.948 52.807 307.654 56.967 L 289.998 54.286 L 286.964 54.286 L 281.23 44.551 C 275.547 34.92 265.199 29.007 254.016 29 L 195.984 29 Z  M 195.984 41.643 L 254.016 41.643 C 260.742 41.643 266.937 45.183 270.351 50.98 L 279.745 66.929 L 289.037 66.929 L 315.019 70.868 L 316.302 65.102 C 316.6 63.775 317.693 63.004 319.033 63.225 L 319.046 63.225 L 337.985 66.386 C 339.243 66.594 339.983 67.574 339.926 68.908 L 339.667 74.597 L 359.643 77.607 C 365.843 78.516 370.428 83.851 370.396 90.117 L 370.396 243.933 C 370.396 250.994 364.814 256.576 357.753 256.576 L 136.498 256.576 C 136.498 253.085 133.668 250.255 130.176 250.255 C 126.685 250.255 123.855 253.085 123.855 256.576 L 92.247 256.576 C 85.186 256.576 79.604 250.994 79.604 243.933 L 79.604 85.66 C 79.575 79.415 84.131 74.094 90.306 73.162 L 109.271 70.223 C 114.682 69.388 119.499 72.063 122.053 76.412 L 123.855 79.484 C 123.855 79.514 123.855 79.543 123.855 79.573 C 123.855 83.064 126.685 85.894 130.176 85.894 C 133.668 85.894 136.498 83.064 136.498 79.573 C 136.499 79.116 136.45 78.66 136.353 78.213 L 166.412 73.422 L 179.649 50.98 C 183.054 45.192 189.269 41.639 195.984 41.643 Z  M 231.322 92.216 C 192.994 92.216 161.784 123.425 161.784 161.753 C 161.784 200.081 192.994 231.29 231.322 231.29 C 260.919 231.29 286.199 212.654 296.219 186.533 C 297.717 186.831 299.253 187.039 300.859 187.039 C 314.747 187.039 326.145 175.641 326.145 161.753 C 326.145 147.864 314.747 136.467 300.859 136.467 C 299.299 136.482 297.745 136.652 296.219 136.972 C 286.193 110.852 260.919 92.216 231.322 92.216 Z  M 130.176 98.537 C 126.685 98.537 123.855 101.368 123.855 104.859 C 123.855 108.35 126.685 111.18 130.176 111.18 C 133.668 111.18 136.498 108.35 136.498 104.859 C 136.498 101.368 133.668 98.537 130.176 98.537 Z  M 231.322 104.859 C 262.816 104.859 288.216 130.259 288.216 161.753 C 288.216 193.247 262.816 218.647 231.322 218.647 C 199.828 218.647 174.427 193.247 174.427 161.753 C 174.427 130.259 199.828 104.859 231.322 104.859 Z  M 338.788 104.859 C 335.297 104.859 332.467 107.689 332.467 111.18 C 332.467 114.672 335.297 117.502 338.788 117.502 C 342.28 117.502 345.11 114.672 345.11 111.18 C 345.11 107.689 342.28 104.859 338.788 104.859 Z  M 130.176 123.824 C 126.685 123.824 123.855 126.654 123.855 130.145 C 123.855 133.636 126.685 136.467 130.176 136.467 C 133.668 136.467 136.498 133.636 136.498 130.145 C 136.498 126.654 133.668 123.824 130.176 123.824 Z  M 130.176 149.11 C 126.685 149.11 123.855 151.94 123.855 155.431 C 123.855 158.923 126.685 161.753 130.176 161.753 C 133.668 161.753 136.498 158.923 136.498 155.431 C 136.498 151.94 133.668 149.11 130.176 149.11 Z  M 300.859 149.11 C 307.92 149.11 313.502 154.692 313.502 161.753 C 313.502 168.814 307.92 174.396 300.859 174.396 C 300.454 174.396 300.069 174.276 299.67 174.238 C 300.416 170.18 300.859 166.02 300.859 161.753 C 300.859 157.486 300.416 153.326 299.67 149.268 C 300.069 149.23 300.454 149.11 300.859 149.11 Z  M 130.176 174.396 C 126.685 174.396 123.855 177.226 123.855 180.718 C 123.855 184.209 126.685 187.039 130.176 187.039 C 133.668 187.039 136.498 184.209 136.498 180.718 C 136.498 177.226 133.668 174.396 130.176 174.396 Z  M 130.176 199.682 C 126.685 199.682 123.855 202.513 123.855 206.004 C 123.855 209.495 126.685 212.325 130.176 212.325 C 133.668 212.325 136.498 209.495 136.498 206.004 C 136.498 202.513 133.668 199.682 130.176 199.682 Z  M 130.176 224.969 C 126.685 224.969 123.855 227.799 123.855 231.29 C 123.855 234.781 126.685 237.612 130.176 237.612 C 133.668 237.612 136.498 234.781 136.498 231.29 C 136.498 227.799 133.668 224.969 130.176 224.969 Z  M 180.749 269.22 L 269.251 269.22 C 272.823 269.22 275.573 271.969 275.573 275.541 C 275.573 279.113 272.823 281.863 269.251 281.863 L 257.012 281.863 L 256.127 287.135 C 253.616 302.111 240.777 313.163 225.594 313.42 C 225.363 313.395 225.131 313.382 224.899 313.382 C 224.726 313.383 224.553 313.392 224.38 313.407 C 209.21 313.142 196.386 302.098 193.873 287.135 L 192.988 281.863 L 180.749 281.863 C 177.177 281.863 174.427 279.113 174.427 275.541 C 174.427 271.969 177.177 269.22 180.749 269.22 Z  M 212.357 281.863 C 208.866 281.863 206.035 284.693 206.035 288.184 C 206.035 291.676 208.866 294.506 212.357 294.506 C 215.848 294.506 218.678 291.676 218.678 288.184 C 218.678 284.693 215.848 281.863 212.357 281.863 Z  M 237.643 281.863 C 234.152 281.863 231.322 284.693 231.322 288.184 C 231.322 291.676 234.152 294.506 237.643 294.506 C 241.134 294.506 243.965 291.676 243.965 288.184 C 243.965 284.693 241.134 281.863 237.643 281.863 Z " fill="rgb(0,0,0)"/></g></svg>