<?xml version="1.0" encoding="UTF-8" standalone="no"?>
<!-- Created with Inkscape (https://www.inkscape.org/) -->
<!-- ClipArt by Arvin61r58 (https://openclipart.org/user-detail/Arvin61r58) -->
<svg
   xmlns:dc="http://purl.org/dc/elements/1.1/"
   xmlns:cc="http://creativecommons.org/ns#"
   xmlns:rdf="http://www.w3.org/1999/02/22-rdf-syntax-ns#"
   xmlns:svg="http://www.w3.org/2000/svg"
   xmlns="http://www.w3.org/2000/svg"
   width="716.99988"
   height="386.00003"
   viewBox="0 0 189.70621 102.12918"
   version="1.1"
   id="svg3015">
  <title
     id="title5577">Menu Typography 2</title>
  <defs
     id="defs3009" />
  <metadata
     id="metadata3012">
    <rdf:RDF>
      <cc:Work
         rdf:about="">
        <dc:format>image/svg+xml</dc:format>
        <dc:type
           rdf:resource="http://purl.org/dc/dcmitype/StillImage" />
        <dc:title>Menu Typography 2</dc:title>
        <dc:creator>
          <cc:Agent>
            <dc:title>Arvin61r58</dc:title>
          </cc:Agent>
        </dc:creator>
        <dc:publisher>
          <cc:Agent>
            <dc:title>Openclipart.org</dc:title>
          </cc:Agent>
        </dc:publisher>
        <dc:identifier>https://openclipart.org/</dc:identifier>
        <dc:source>https://openclipart.org/user-detail/Arvin61r58</dc:source>
        <dc:description>Menu typography</dc:description>
        <dc:subject>
          <rdf:Bag>
            <rdf:li>menu</rdf:li>
            <rdf:li>bill of fare</rdf:li>
            <rdf:li>restaurant</rdf:li>
            <rdf:li>food</rdf:li>
            <rdf:li>stationery</rdf:li>
            <rdf:li>victorian</rdf:li>
            <rdf:li>typography</rdf:li>
          </rdf:Bag>
        </dc:subject>
        <cc:license
           rdf:resource="http://creativecommons.org/publicdomain/zero/1.0/" />
        <dc:contributor>
          <cc:Agent>
            <dc:title>Firkin (https://openclipart.org/user-detail/Firkin)</dc:title>
          </cc:Agent>
        </dc:contributor>
      </cc:Work>
      <cc:License
         rdf:about="http://creativecommons.org/publicdomain/zero/1.0/">
        <cc:permits
           rdf:resource="http://creativecommons.org/ns#Reproduction" />
        <cc:permits
           rdf:resource="http://creativecommons.org/ns#Distribution" />
        <cc:permits
           rdf:resource="http://creativecommons.org/ns#DerivativeWorks" />
      </cc:License>
    </rdf:RDF>
  </metadata>
  <g
     id="g3277">
    <title
       id="title3279">Menu Typography 2  --   by Arvin61r58</title>
    <path
       id="path831"
       d="m 188.38305,62.825417 c -0.0113,-0.649678 -0.12056,-1.299451 -0.35989,-1.881053 -0.23887,-0.580251 -1.16817,-1.426108 -1.16817,-1.426108 0,0 -0.92929,0.845857 -1.16818,1.426108 -0.36483,0.886259 -0.42651,1.930879 -0.30314,2.891856 0.15548,1.211028 1.11631,3.175639 1.3679,3.675993 -0.3775,0.941687 -1.02926,1.917347 -2.05033,2.67921 -0.58813,0.413859 -1.187,0.715934 -1.76811,0.905888 -0.0851,0.02787 -0.16694,0.05155 -0.24751,0.07362 0.001,-0.02787 0.004,-0.05446 0.005,-0.08247 0.0144,-0.320895 0.0177,-0.652862 0.01,-0.996782 -0.33526,-2.845201 -1.61519,-4.477985 -3.26296,-5.341594 -0.0917,-0.04794 -0.18404,-0.09371 -0.27776,-0.136957 -0.84352,-0.389841 -1.77104,-0.593465 -2.7104,-0.666399 -0.20871,-0.01621 -0.41809,-0.02572 -0.6272,-0.02959 -0.2091,-0.004 -0.4178,-0.0014 -0.6257,0.0053 -0.84971,0.0308 -1.39051,0.06921 -1.81814,0.154984 -0.10696,0.02144 -0.2066,0.04581 -0.30242,0.07377 h -4e-4 c -0.28743,0.08381 -0.53856,0.19969 -0.83625,0.364033 -5.72588,3.90926 3.19652,13.558672 4.19251,6.940302 0.0804,-0.533984 -0.32365,-1.822387 -0.74852,-1.951135 -0.85711,0.659477 0.69755,0.933558 -0.32068,2.112131 -0.87369,0.997601 -2.40291,0.33913 -3.22452,-1.388474 -0.5325,-1.119697 -0.50394,-2.789989 0.063,-3.694017 0.6288,-1.002341 1.51996,-1.26405 3.9592,-1.161785 1.67406,0.07444 4.27551,0.529874 4.73798,3.430913 0.74735,7.461884 -5.17941,10.548489 -10.3768,11.720806 -0.63012,0.137755 -1.47836,0.208073 -2.42478,0.228284 -1.40281,-0.789714 -2.95355,-1.68215 -3.86141,-2.44934 -0.38329,-0.323886 -0.66533,-0.631858 -0.84523,-0.940323 -0.16293,-0.279328 -0.24632,-0.56468 -0.24604,-0.889454 6e-4,-0.289902 0.0486,-0.617561 0.1322,-0.971172 0.45769,-0.0094 2.0561,-0.06435 2.82054,-0.44934 0.61716,-0.310748 1.18321,-0.81007 1.49556,-1.491373 0.20454,-0.446072 0.19078,-1.575485 0.19078,-1.575485 0,0 -0.98359,-0.403311 -1.44444,-0.351219 -0.70387,0.07953 -1.33596,0.477328 -1.82073,0.991581 -0.13111,0.13902 -0.26332,0.327059 -0.39201,0.541044 -0.005,0.0094 -0.0112,0.01886 -0.016,0.02806 0.0299,-0.06834 0.0607,-0.140763 0.0896,-0.207043 0.15143,-0.344797 0.28904,-0.655852 0.38043,-0.899877 9e-4,-0.0029 0.003,-0.0067 0.004,-0.0093 0.20016,-0.574308 0.22185,-1.076079 0.12281,-1.496981 -0.0331,-0.140312 -0.0793,-0.271673 -0.13703,-0.393671 -0.11568,-0.244413 -0.274,-0.44671 -0.45433,-0.607921 -0.045,-0.04029 -0.0914,-0.07817 -0.13887,-0.113379 h -4e-4 c -0.14246,-0.105634 -0.29413,-0.188173 -0.4465,-0.248699 -0.20743,-0.08232 -0.41904,-0.125038 -0.61673,-0.128512 -0.0502,-7.97e-4 -0.0994,5.98e-4 -0.14786,0.0038 -0.0483,0.004 -0.0954,0.01058 -0.14148,0.01995 h -4e-4 c -0.0919,0.01861 -0.17834,0.04764 -0.25722,0.08688 -0.0404,0.02022 -0.0787,0.04297 -0.11456,0.06853 -0.0359,0.02545 -0.0693,0.05355 -0.10008,0.08446 h -4e-4 c -0.0615,0.06187 -0.11196,0.134629 -0.14898,0.217854 -0.0756,0.169857 -0.0906,0.373507 -0.0414,0.605525 0.0351,0.126782 0.0984,0.212699 0.16575,0.270318 0.0722,0.06173 0.1519,0.0936 0.21766,0.110577 0.0444,0.01208 0.0831,0.01793 0.11569,0.02167 0.0326,0.0038 0.0595,0.0038 0.081,0.0029 0.0429,-0.0014 0.0639,-0.0093 0.0639,-0.0093 0,0 -0.0218,0.0029 -0.0636,-0.0053 h -4e-4 c -0.0415,-0.0083 -0.10259,-0.02422 -0.18032,-0.06253 -0.0581,-0.02852 -0.11956,-0.07067 -0.168,-0.132538 -0.0222,-0.02825 -0.0419,-0.06079 -0.0576,-0.09854 -0.008,-0.01887 -0.0143,-0.03923 -0.0199,-0.0609 -0.007,-0.02167 -0.01,-0.04472 -0.0125,-0.06935 -0.008,-0.05181 -0.014,-0.100812 -0.0157,-0.146963 -0.004,-0.09238 0.007,-0.173473 0.0285,-0.244295 0.0112,-0.03535 0.024,-0.06826 0.0396,-0.09854 0.0606,-0.117677 0.16039,-0.204574 0.29009,-0.259503 0.064,-0.02717 0.13572,-0.04633 0.21279,-0.05729 0.0385,-0.0053 0.0783,-0.0093 0.11944,-0.0093 0.0411,-0.0014 0.0836,-2.99e-4 0.12689,0.0029 0.17061,0.01208 0.3538,0.05822 0.53275,0.139352 0.35354,0.160355 0.67971,0.452066 0.8542,0.862245 0.16982,0.39928 0.20357,0.928363 -0.0463,1.595514 -0.10459,0.224811 -0.25259,0.512696 -0.42374,0.854211 -0.17216,0.343514 -0.36111,0.728256 -0.53947,1.132165 -0.12367,0.27971 -0.23962,0.566358 -0.34271,0.853407 -0.01,-0.06135 -0.0228,-0.137276 -0.0348,-0.209055 -0.008,-0.05421 -0.0157,-0.09939 -0.0262,-0.158583 -0.12974,-0.740207 -0.36497,-1.830922 -0.69663,-2.38565 -0.3681,-0.615593 -0.90379,-1.151976 -1.57435,-1.394862 -0.43902,-0.159043 -1.48101,0.0029 -1.48101,0.0029 0,0 -0.0609,0.274817 -0.10834,0.609928 -0.0113,0.08382 -0.0232,0.171131 -0.0322,0.259102 v 3.98e-4 c -0.0269,0.263945 -0.0354,0.53163 0.005,0.712853 0.10359,0.461232 0.31831,0.876347 0.59623,1.232288 v 3.98e-4 c 0.0555,0.071 0.11369,0.139979 0.17397,0.20625 0.12043,0.132686 0.24984,0.255202 0.38455,0.367243 0.67584,0.562142 2.25563,0.996042 2.67529,1.104915 -0.007,0.02044 -0.0139,0.04106 -0.0203,0.06168 -0.13397,0.4375 -0.22571,0.869753 -0.24527,1.275529 -0.0217,0.453131 0.0782,0.866169 0.28521,1.257509 0.16534,0.312412 0.39621,0.604768 0.67349,0.884651 0.0925,0.09334 0.18986,0.185102 0.29196,0.275935 0.68312,0.607734 1.69354,1.259934 2.72197,1.86944 -3.17383,-0.103527 -6.80772,-0.6625 -7.76384,-1.37324 -1.17959,-0.6444 -1.82254,-1.277306 -2.1239,-1.877049 -0.0862,-0.171361 -0.14433,-0.339932 -0.17922,-0.505425 -0.15697,-0.744584 0.15858,-1.42454 0.53203,-1.994372 0.16597,-0.253267 0.34331,-0.484658 0.49578,-0.690433 0.38115,-0.514427 0.60632,-0.86799 0.10671,-0.99839 -0.20508,-0.05357 -0.40555,-0.04675 -0.59659,0.0094 -0.0383,0.01096 -0.0758,0.02458 -0.11321,0.03962 -0.97338,0.389546 -1.67222,2.036222 -1.46979,3.286736 0.0545,0.336632 0.026,0.543801 -0.0611,0.65678 -0.0125,0.01602 -0.0259,0.03012 -0.0407,0.0425 h -4e-4 c -0.35513,0.297654 -1.36134,-0.451211 -2.04885,-0.818184 -2.16093,-1.153421 -3.93825,-2.122089 -5.30394,-2.885046 -0.0787,-0.378499 -0.12257,-0.780202 -0.12219,-1.19703 9e-4,-1.25602 0.37546,-2.625632 1.19988,-3.742881 0.29738,-0.402986 0.64417,-0.763081 1.01213,-1.060055 0.0921,-0.07429 0.18504,-0.144643 0.27924,-0.21066 0.28263,-0.198071 0.57359,-0.357622 0.86056,-0.470153 0.0956,-0.03749 0.19082,-0.06975 0.28521,-0.09654 0.66066,-0.187127 1.27946,-0.102394 1.70688,0.364047 0.6783,0.740204 0.69603,2.369545 -0.20124,3.5222 -0.11094,0.142593 -0.23991,0.276638 -0.37892,0.396481 -0.0463,0.03991 -0.0937,0.07831 -0.14187,0.114975 h -4e-4 c -0.0967,0.07323 -0.19646,0.139427 -0.29754,0.197036 -0.0505,0.02878 -0.10121,0.05542 -0.15198,0.07966 h -4e-4 c -0.10157,0.04862 -0.20282,0.08794 -0.30203,0.116083 -0.0497,0.01395 -0.0985,0.02515 -0.1467,0.03362 h -4e-4 c -0.28891,0.05045 -0.54627,-0.0038 -0.71085,-0.208658 -0.13437,-0.166699 -0.2606,-0.582499 -0.23966,-0.855415 0.0211,-0.272912 0.21098,-0.700177 0.40133,-0.925512 0.45306,-0.566674 0.64119,-0.380538 0.92216,-0.346012 0.14804,0.01823 0.18867,0.426659 0.33299,0.282746 0.13274,-0.132244 0.022,-0.320737 -0.0836,-0.481788 -0.16857,-0.257172 -0.34571,-0.272769 -0.62567,-0.199435 -0.10496,0.02758 -0.18761,0.064 -0.26208,0.113816 -0.0248,0.0166 -0.0484,0.03441 -0.072,0.05408 h -4e-4 c -0.0943,0.07846 -0.18291,0.182792 -0.30053,0.321978 -0.36054,0.426683 -0.52498,0.774931 -0.56075,1.240278 -0.0358,0.465346 0.0263,0.750619 0.25426,1.033241 0.67282,0.834206 1.67663,0.335648 2.52709,-0.756911 0.30338,-0.389748 0.53207,-0.774411 0.69066,-1.147367 0.0793,-0.186489 0.14107,-0.370151 0.18592,-0.549864 0.22416,-0.898522 0.0247,-1.701633 -0.52527,-2.301949 -1.21945,-1.330698 -3.14864,-0.857079 -4.84552,1.442532 -0.84843,1.149792 -1.46972,2.465128 -1.61019,3.72004 -0.0356,0.318934 -0.0491,0.647625 -0.0422,0.975161 -0.9979,-0.569342 -1.64277,-0.961144 -1.81552,-1.110922 -0.0648,-0.05624 -0.12838,-0.121551 -0.19002,-0.194625 -0.43176,-0.511802 -0.7767,-1.413579 -0.88928,-2.361233 -0.008,-0.07189 -0.0147,-0.13867 -0.0184,-0.20104 -0.007,-0.124758 -0.004,-0.23211 0.0136,-0.330387 0.0414,-0.245726 0.16489,-0.432747 0.4103,-0.680013 0.28285,-0.285594 0.56418,-0.444877 0.83665,-0.52263 0.0454,-0.01353 0.0903,-0.02385 0.1352,-0.0324 0.98779,-0.190099 1.84406,0.614831 2.22805,0.202231 0.0349,-0.03749 0.0662,-0.0849 0.093,-0.144161 0.0136,-0.0296 0.0258,-0.06241 0.0369,-0.09814 0.25759,-0.813366 -1.07909,-1.884252 -1.63858,-1.884252 -0.0469,0 -0.0939,0.0014 -0.14111,0.0053 h -4e-4 c -0.52025,0.03893 -1.06052,0.288445 -1.49633,0.678422 -0.0793,0.07096 -0.15465,0.146486 -0.22623,0.22626 h -4e-4 c -0.0716,0.07978 -0.1388,0.163702 -0.20122,0.251496 -0.6294,0.885204 -0.69703,2.184117 -0.18779,3.610717 0.096,0.269116 0.17286,0.524858 0.21914,0.720474 0.0232,0.09786 0.0386,0.180554 0.0452,0.242283 0.007,0.06172 0.004,0.102694 -0.008,0.116619 -0.0516,0.05542 -0.58399,-0.139672 -1.18271,-0.433711 -1.04923,-0.515269 -4.81234,-1.9219 -6.00097,-2.265512 -0.0849,-0.02447 -0.15648,-0.04391 -0.21316,-0.05689 h -4e-4 c -0.0566,-0.01353 -0.0982,-0.01968 -0.12281,-0.01968 -0.32474,-0.233733 -0.59855,-0.464478 -0.82693,-0.692023 -0.1142,-0.113817 -0.21706,-0.226744 -0.30911,-0.338808 -0.64449,-0.78445 -0.76275,-1.525765 -0.57832,-2.205042 0.0528,-0.194076 0.13015,-0.383146 0.22701,-0.566675 0.8237,-1.559995 3.05586,-2.723215 3.4955,-3.221856 0.026,-0.02932 0.0457,-0.05621 0.0585,-0.08087 0.0256,-0.04939 0.0236,-0.0893 -0.0112,-0.119422 -0.55116,-0.481386 -1.64775,-0.434061 -2.40278,-0.143363 -0.7694,0.296238 -1.49579,0.970481 -1.8032,1.782936 -0.23833,0.629916 0.0427,1.689223 -0.0358,1.689223 -0.34194,0 -1.21942,-2.646249 -1.39626,-4.210636 -0.18038,-1.595511 -0.16622,-1.716305 0.34385,-2.935524 0.38717,-0.925525 0.83388,-1.597933 1.33128,-2.009198 0.0553,-0.04567 0.11108,-0.08808 0.16765,-0.127306 0.33908,-0.235403 0.70018,-0.354418 1.08116,-0.354418 0.17083,0 0.32685,0.02181 0.46667,0.06452 0.0465,0.0141 0.0914,0.0309 0.13437,0.04967 0.30108,0.131184 0.513,0.372548 0.62347,0.707647 0.0787,0.239273 0.10597,0.526527 0.0765,0.855416 -0.0485,0.543393 -0.15508,0.695289 -0.52789,0.751702 -0.0715,0.01058 -0.14236,0.01208 -0.21095,0.0038 -0.0343,-0.0038 -0.0679,-0.01058 -0.10084,-0.01886 h -4e-4 c -0.0327,-0.0083 -0.0647,-0.01939 -0.0956,-0.03202 h -4e-4 c -0.0621,-0.02545 -0.11956,-0.05892 -0.17138,-0.100128 -0.0516,-0.04125 -0.0975,-0.09012 -0.13546,-0.145776 -0.10769,-0.1579 -0.20191,-0.236434 -0.27254,-0.250704 -0.0143,-0.0029 -0.0271,-0.0029 -0.0392,-7.97e-4 h -4e-4 c -0.12155,0.02157 -0.14014,0.287885 0.0254,0.677617 0.32115,0.756175 1.20951,1.026828 1.85098,0.209044 0.6562,-0.836537 0.61999,-1.949874 -0.0765,-2.749693 -0.17247,-0.198027 -0.31353,-0.336719 -0.45884,-0.432508 -0.0484,-0.03188 -0.0971,-0.05916 -0.14782,-0.08209 h -4e-4 c -0.20278,-0.09185 -0.43407,-0.116718 -0.77875,-0.112995 -0.11432,0.0014 -0.23746,0.0093 -0.36251,0.02332 h -4e-4 c -0.37518,0.04096 -0.76575,0.131183 -0.97441,0.233073 -1.06383,0.519565 -2.21818,2.672744 -2.36882,4.418087 -0.0324,0.376779 -0.1052,0.734419 -0.16163,0.794945 -0.0564,0.0605 -0.55379,-0.324925 -1.10507,-0.85662 -0.93635,-0.903075 -1.84559,-1.504571 -2.77983,-1.831386 -0.0849,-0.0297 -0.16998,-0.05731 -0.25536,-0.08247 -0.34166,-0.1008 -0.68704,-0.165377 -1.03901,-0.195444 -0.978,-0.08354 -1.20223,-0.0371 -1.49443,0.310777 -0.42622,0.507315 -0.26055,1.445869 0.29417,1.665999 0.20855,0.08271 1.07946,0.03908 1.935,-0.09694 0.17997,-0.02865 0.34015,-0.0537 0.48347,-0.07444 0.1433,-0.02088 0.2698,-0.03748 0.38303,-0.05006 0.67949,-0.07589 0.87703,-4e-5 1.30441,0.278326 0.0479,0.0312 0.0982,0.06655 0.1501,0.105783 0.0519,0.03924 0.10545,0.08247 0.16055,0.128902 0.77149,0.65056 1.82746,1.96826 2.24259,2.839 0.17213,0.36102 0.48027,1.141882 0.73437,1.849004 -0.28549,-0.357444 -0.58287,-0.683681 -0.85161,-0.870637 -0.61013,-0.424489 -1.35061,-0.692771 -2.10184,-0.612325 -0.49187,0.05277 -1.43771,0.702034 -1.43771,0.702034 0,0 0.21378,1.182739 0.51744,1.601108 0.46375,0.639021 1.1556,1.029467 1.86293,1.21065 0.71086,0.182095 1.99215,0.0014 2.71152,-0.125321 0.23616,0.594083 0.47917,1.150986 0.77952,1.784531 l 0.25984,0.548254 -1.22939,-0.06492 c -0.16909,-0.0093 -0.33558,-0.02103 -0.49167,-0.03479 -0.15609,-0.0138 -0.30163,-0.02933 -0.42935,-0.04604 h -4e-4 c -0.25543,-0.03332 -0.43852,-0.07058 -0.48794,-0.103366 -0.27966,-0.185406 -3.58017,-0.748465 -5.50443,-0.939127 -0.81605,-0.08087 -1.49883,-0.218831 -2.06006,-0.418908 -0.0802,-0.02865 -0.15772,-0.05863 -0.23297,-0.08969 -0.60213,-0.248979 -1.04748,-0.579754 -1.35367,-0.999947 -0.10682,-0.146647 -0.24031,-0.381928 -0.38528,-0.670803 -0.43494,-0.866621 -0.97486,-2.216903 -1.2223,-3.114111 -0.0564,-0.204252 -0.0978,-0.363028 -0.12168,-0.493809 -0.0718,-0.392306 0.014,-0.532391 0.32741,-0.890251 0.45747,-0.522388 0.941,-0.62376 1.47317,-0.304765 0.0409,0.02447 0.082,0.05142 0.12343,0.08087 0.0832,0.05901 0.16722,0.128126 0.25274,0.207037 0.36609,0.488241 0.24997,0.497476 0.16951,0.925513 -0.22882,0.27123 -0.49526,0.387953 -0.71492,0.313172 -0.37661,-0.128261 -0.46964,0.290841 -0.20086,0.515414 0.0192,0.01606 0.0401,0.03106 0.063,0.04484 0.0229,0.0138 0.0475,0.02627 0.0741,0.03723 0.4299,0.176965 0.91798,-0.156428 1.17374,-0.644763 0.0512,-0.0976 0.0933,-0.201549 0.12356,-0.308769 0.0606,-0.214442 0.0742,-0.442268 0.0232,-0.660803 -0.0952,-0.407019 -0.3163,-0.728637 -0.60707,-0.949928 -0.0581,-0.04431 -0.11893,-0.0845 -0.18217,-0.120493 -0.12663,-0.07229 -0.26256,-0.127976 -0.40431,-0.166192 -0.0708,-0.01902 -0.14289,-0.03386 -0.21615,-0.04406 h -4e-4 c -0.5128,-0.07136 -1.07388,0.07806 -1.52955,0.489376 l -0.5973,0.539046 -0.42075,-0.423713 c -0.17364,-0.174948 -0.53986,-0.378196 -0.91021,-0.51662 -0.0617,-0.02317 -0.1233,-0.0443 -0.18442,-0.06322 h -6.9e-4 c -0.0611,-0.01901 -0.12119,-0.0359 -0.17995,-0.05006 -1.0664,-0.256975 -2.06966,-0.04552 -1.90625,0.830982 0.0446,0.23965 0.13944,0.402428 0.2733,0.511829 0.0334,0.02732 0.0693,0.05142 0.10756,0.07242 0.42035,0.231441 1.11787,0.103365 1.8734,0.103365 0.0726,0 0.14299,0.0093 0.21056,0.02679 0.0336,0.0083 0.0667,0.01886 0.099,0.0308 h 7e-4 c 0.0324,0.01208 0.0639,0.02583 0.0949,0.04083 0.37137,0.180092 0.63415,0.554133 0.71195,0.66521 0.0987,0.140952 0.50415,1.04059 0.90085,1.999182 0.39669,0.958594 0.98513,2.101958 1.30779,2.540637 l 0.58649,0.797367 -3.3275,-0.145378 c -0.43547,-0.01901 -0.81806,-0.02904 -1.19803,-0.03841 -0.22209,-1.638538 -0.86976,-3.70914 -2.29153,-5.6844 -0.63902,-0.870583 -1.40558,-1.595339 -2.23516,-2.082894 -0.22937,-0.134821 -0.45063,-0.240332 -0.66752,-0.330789 -0.14551,-0.124367 -0.42177,-0.355747 -0.75748,-0.61273 -0.11196,-0.08567 -0.23029,-0.174036 -0.3528,-0.262313 -0.49016,-0.353186 -1.04422,-0.703053 -1.49372,-0.855831 -0.73121,-0.248536 -1.56305,-0.343653 -2.32735,-0.144977 -0.50044,0.130124 -1.33916,0.839002 -1.33916,0.839002 0,0 0.48913,0.952475 0.89974,1.249486 0.62718,0.453684 1.43626,0.658859 2.21389,0.686826 0.99204,0.0356 2.74747,-0.555871 3.15838,-0.699237 0.1742,0.102158 0.34958,0.214574 0.5264,0.350819 0.73231,0.564345 1.36674,1.353629 1.851,2.245886 1.00058,1.796096 1.40289,3.513981 1.56238,4.915884 0.0143,0.125563 0.0263,0.248551 0.0369,0.368835 -0.97494,0.004 -1.71805,0.05355 -2.25193,0.149373 -2.46206,0.442027 -3.3256,0.441505 -4.43297,-0.0029 -1.442,-0.578752 -2.30216,-1.363496 -2.45353,-2.128546 -0.0153,-0.07643 -0.0235,-0.152796 -0.0244,-0.228684 -0.003,-0.189712 0.0409,-0.376922 0.13098,-0.557867 0.036,-0.07241 0.0794,-0.14367 0.13069,-0.213851 0.0769,-0.105221 0.17086,-0.207704 0.2826,-0.306758 0.3573,-0.316785 0.97013,-0.441409 1.4717,-0.355234 0.0913,0.01569 0.17896,0.03841 0.26058,0.06816 0.12244,0.04459 0.23146,0.104961 0.31995,0.181815 0.38162,0.331485 0.41385,0.451824 0.22287,0.834599 -0.22337,0.447753 -0.42687,0.541482 -0.61373,0.280733 -0.0623,-0.08688 -0.12269,-0.213127 -0.18145,-0.378852 -0.0564,-0.158893 -0.10445,-0.26811 -0.15231,-0.331992 -0.0799,-0.106406 -0.15873,-0.08768 -0.26995,0.03159 -0.17795,0.190893 -0.16428,0.369708 0.0611,0.802159 0.13341,0.255822 0.28551,0.433324 0.44315,0.531843 0.063,0.03938 0.12675,0.06598 0.19076,0.08006 0.28816,0.06372 0.57817,-0.128125 0.79482,-0.577493 0.43558,-0.903529 0.23249,-1.588364 -0.57866,-1.951937 -0.58499,-0.255205 -1.24132,-0.261979 -1.78117,-0.01916 h -4e-4 c -0.69394,0.312209 -1.19523,1.036979 -1.10393,2.176607 l 0.1243,1.005192 -1.80359,0.01058 c -2.21041,0.01352 -3.63082,0.509165 -4.50202,1.573073 l -4e-4,7.98e-4 c -0.3215,0.393014 -0.58504,0.92103 -0.58504,1.173811 0,0.625738 0.51678,1.37123 0.95053,1.37123 0.38747,-0.05277 0.6861,-0.359346 0.952,-0.756496 v -3.99e-4 c 0.39885,-0.595821 0.7247,-1.395022 1.1678,-1.846204 0.0493,-0.05019 0.1,-0.09625 0.15231,-0.136957 0.17218,-0.180366 0.31045,-0.319407 0.44201,-0.4281 0.39468,-0.326118 0.72917,-0.379774 1.73971,-0.461758 1.36394,-0.110727 1.52636,-0.07643 2.9419,0.619139 0.82402,0.404918 1.66288,0.763473 1.86443,0.796953 0.0648,0.01058 0.12306,0.02772 0.17433,0.04926 0.0258,0.01058 0.0494,0.02276 0.0716,0.0356 0.0666,0.03855 0.11743,0.08541 0.1512,0.134561 0.11244,0.163806 0.0351,0.354016 -0.27702,0.354016 -0.22272,0 -0.59518,0.128246 -0.82805,0.28475 -1.80361,1.108787 -3.53864,2.185643 -4.90822,3.562644 -1.18825,0.146729 -2.34055,0.251992 -3.19687,0.21067 -0.53261,-0.02567 -0.96588,-0.103752 -1.30852,-0.249104 -0.3102,-0.131611 -0.55352,-0.320805 -0.74554,-0.597522 -0.19629,-0.28356 -0.36729,-0.646327 -0.51671,-1.07007 -0.1435,-0.406963 -0.260297,-0.851787 -0.360627,-1.305969 -0.098,-0.443939 -0.17682,-0.880087 -0.24789,-1.281536 -0.0696,-0.392583 -0.13126,-0.747685 -0.194507,-1.015205 -2e-4,-0.004 -4e-4,-0.0067 -0.003,-0.0093 -0.21614,-0.826567 -0.637707,-1.33643 -1.131934,-1.601512 -0.495127,-0.265456 -1.042388,-0.275202 -1.499315,-0.147375 -0.140229,0.03924 -0.272119,0.09277 -0.394599,0.155793 -0.141377,-0.358155 -0.681953,-1.681247 -1.20437,-2.266315 -0.417739,-0.46781 -0.957045,-0.870677 -1.550822,-1.043243 -0.388766,-0.112994 -1.208845,0.03642 -1.208845,0.03642 0,0 0.01,0.855709 0.190773,1.227063 0.275859,0.56724 0.761656,1.036883 1.286882,1.371247 0.605386,0.385372 1.829249,0.672651 2.312405,0.776124 -0.0184,0.01208 -0.0379,0.02342 -0.0555,0.03601 -0.18067,0.127587 -0.17266,0.24503 -0.287089,0.337202 -0.13137,0.105882 -0.369097,0.173647 -0.545057,0.242297 -0.425146,-0.164704 -1.996395,-0.750453 -2.921894,-0.753722 -0.741169,-0.0029 -1.525778,0.158297 -2.157127,0.555472 -0.41337,0.259996 -0.952759,1.124142 -0.952759,1.124142 h 7.2e-4 c 0,0 0.046,0.04271 0.12281,0.109369 0.230379,0.199822 0.735079,0.61277 1.084168,0.716856 0.710899,0.212003 1.508938,0.154524 2.223211,-0.04886 0.912562,-0.25985 2.322895,-1.293301 2.648031,-1.536633 0.10783,-0.0029 0.22452,-0.01058 0.30352,-0.03401 0.0909,-0.02757 0.170197,-0.08754 0.246427,-0.145362 8.9e-4,-0.0014 0.003,-0.0029 0.005,-0.004 -0.215236,0.566154 -0.561226,1.556942 -0.584656,2.190624 -0.0235,0.634483 0.0842,1.310668 0.3879,1.862632 0.198856,0.361392 0.884053,0.847811 0.884053,0.847811 0,0 0.578566,-0.6151 0.704476,-1.009601 0.192311,-0.602568 0.168581,-1.287304 0.0243,-1.904679 -0.175106,-0.749148 -0.902692,-1.902752 -1.139779,-2.266717 0.0274,-0.02447 0.0551,-0.04913 0.0889,-0.07044 0.15896,-0.10095 0.34907,-0.1814 0.556253,-0.229072 0.40935,-0.09424 0.872036,-0.05852 1.270093,0.177007 0.387457,0.229287 0.731057,0.658153 0.903834,1.389668 0.0401,0.259769 0.0787,0.601334 0.1288,1.004002 v 3.98e-4 c 0.0502,0.404956 0.11019,0.856006 0.19077,1.316373 0.0825,0.470982 0.185557,0.946047 0.320677,1.390468 0.13993,0.460154 0.314357,0.888226 0.537227,1.246691 0.24918,0.40011 0.58241,0.686873 0.9983,0.885054 0.4427,0.210975 0.96731,0.315519 1.54558,0.358431 0.68913,0.05122 1.54304,0.0082 2.43639,-0.0734 -0.44936,0.565853 -0.83793,1.184253 -1.15284,1.870234 l -0.007,-0.01261 c -1.30405,0.779536 -3.10358,2.442284 -4.295227,5.127325 -0.408307,0.941768 -0.656477,1.930583 -0.700357,2.870637 -0.0125,0.259955 -0.005,0.500177 0.0113,0.729682 -0.0989,0.485325 -0.410687,2.118237 -0.289717,3.038825 0.0984,0.748944 0.352187,1.518448 0.801924,2.099708 0.29445,0.380574 1.159557,0.802568 1.159557,0.802568 0,0 0.52899,-0.846574 0.59285,-1.336399 0.0977,-0.748104 -0.0641,-1.546155 -0.34756,-2.238666 -0.36167,-0.883542 -1.496807,-2.158898 -1.766234,-2.455345 0.008,-0.197262 0.0252,-0.400153 0.0591,-0.61474 0.14007,-0.888743 0.488697,-1.790816 0.974034,-2.606717 0.7031,-1.210775 1.49891,-2.126704 2.26463,-2.826964 h 4e-4 c 0.28717,-0.262622 0.57003,-0.495089 0.84224,-0.701246 0.0305,-0.02299 0.0598,-0.04359 0.09,-0.0661 -0.0271,0.119508 -0.0536,0.239651 -0.0769,0.362835 v 3.98e-4 c -0.0844,0.447819 -0.14294,0.920381 -0.17322,1.420101 0.13315,2.402827 0.82096,3.851968 2.66896,5.623935 0.19922,0.191015 0.38457,0.364929 0.56075,0.524224 0.26428,0.238955 0.50773,0.445172 0.74628,0.628342 0.8747,0.671696 1.68189,1.031696 3.19387,1.542652 2.38008,0.771959 6.66838,0.179826 8.80655,-2.448132 0.23502,-0.276269 0.44084,-0.559306 0.61714,-0.847417 v -4.18e-4 c 0.92572,-1.513056 1.03599,-3.168717 0.33189,-4.758068 -0.0334,-0.07575 -0.0684,-0.151386 -0.10558,-0.226682 -0.22336,-0.452162 -0.51359,-0.898 -0.86989,-1.33279 -1.02924,-1.238957 -3.37734,-1.034009 -5.21547,-0.166604 -0.1576,0.08768 -0.30795,0.184345 -0.45098,0.287542 h -4e-4 c -0.42893,0.309556 -0.79049,0.678636 -1.07483,1.046863 v 3.99e-4 c -0.33165,0.429573 -0.55841,0.857719 -0.66377,1.188616 v 3.98e-4 c -0.015,0.04708 -0.0277,0.09259 -0.0377,0.135373 -0.0181,0.07705 -0.0309,0.156934 -0.0384,0.238684 -0.007,0.08164 -0.01,0.165921 -0.008,0.251094 0.0228,1.023642 0.72372,2.262793 1.62998,2.786146 0.15107,0.08735 0.30789,0.154716 0.46817,0.197833 1.14976,0.309558 2.44635,-0.37994 2.70965,-1.126555 v -4.09e-4 c 0.10297,-0.292198 0.0478,-0.592973 -0.2367,-0.84621 -0.23721,-0.211196 -0.437,0.116507 -1.05129,0.334 -0.97821,0.205031 -1.62644,0.09845 -2.00258,-0.181424 h -3e-4 c -0.26022,-0.19368 -0.39028,-0.470521 -0.40879,-0.784136 -0.005,-0.06975 -0.003,-0.141403 0.005,-0.214255 0.0467,-0.509941 0.3528,-1.084672 0.84597,-1.551448 l 4e-4,-3.99e-4 c 0.0705,-0.06674 0.14456,-0.13078 0.22249,-0.192616 0.23379,-0.185359 0.50016,-0.346462 0.79334,-0.469362 0.68409,-0.28681 1.51438,-0.366642 2.41919,-0.06658 0.1292,0.04279 0.26029,0.09367 0.39237,0.152495 0.13206,0.05896 0.26536,0.126032 0.39986,0.201842 0.98297,0.54528 1.37175,2.201319 0.97776,3.536231 v 3.99e-4 c -0.0909,0.307938 -0.22369,0.5989 -0.4002,0.855038 -0.52065,0.75538 -2.34133,2.035793 -3.62583,2.549841 -1.60863,0.643797 -4.22158,0.295099 -6.10064,-0.814175 -1.10062,-0.649725 -2.94797,-2.568005 -3.58702,-3.724457 -0.70359,-1.352079 -0.70606,-3.108796 -0.16426,-4.649957 v -3.99e-4 c 0.0285,-0.08102 0.0585,-0.161359 0.09,-0.241092 v -3.98e-4 c 0.37826,-0.957967 0.97036,-1.816781 1.73714,-2.420473 0.3444,-0.308685 0.6609,-0.579057 0.96546,-0.821798 0.30454,-0.242742 0.59696,-0.457872 0.89412,-0.656381 0.29718,-0.19852 0.59909,-0.380269 0.92137,-0.556274 0.32229,-0.175991 0.66511,-0.346224 1.04499,-0.521415 0.78846,-0.36364 2.2785,-1.079143 3.3111,-1.590304 1.39561,-0.690867 2.19278,-0.956594 3.10612,-1.035248 0.67578,-0.05823 1.22865,-0.05823 1.22865,3.99e-4 0,0.0293 -0.0862,0.148011 -0.22475,0.315986 v 3.98e-4 c -0.13857,0.167929 -0.32967,0.38486 -0.53988,0.610317 -0.65208,0.699561 -0.76455,0.948446 -0.76455,1.691634 0,0.733522 0.10783,0.980508 0.68243,1.561853 0.66424,0.671982 1.45802,0.885208 2.019,0.61314 0.0936,-0.04534 0.18057,-0.104138 0.25948,-0.176608 0.0789,-0.07243 0.14963,-0.158598 0.21053,-0.258324 0.0363,-0.05994 0.0651,-0.118573 0.087,-0.176192 v -3.99e-4 c 0.0659,-0.17277 0.0703,-0.335723 0.0291,-0.490561 -0.0275,-0.103217 -0.0753,-0.203259 -0.13815,-0.300361 -0.31515,-0.485909 -1.01423,-0.904558 -1.49258,-1.350011 -0.409,-0.487129 -0.21287,-1.08659 0.49764,-1.522218 0.36897,-0.22623 1.96823,-0.291042 3.86403,-0.246703 0.63191,0.01489 1.29677,0.04179 1.95998,0.07885 0.15904,0.0093 0.31615,0.01995 0.47451,0.03012 0.85285,0.922926 1.20598,2.488395 0.43157,4.164595 -0.66491,1.43922 -1.98931,2.342162 -2.89742,1.69762 -0.63051,-0.447484 -0.89086,-1.689583 -0.3797,-2.726857 0.33724,-0.68439 1.10024,-1.268002 1.51799,-0.92871 0.12797,0.104025 0.28747,0.399706 0.31284,0.611921 0.0254,0.212231 -0.0551,0.571954 -0.1665,0.777336 -0.26043,0.512019 -0.43264,0.402752 -0.6526,0.425309 -0.11595,0.0126 -0.20866,-0.293342 -0.29717,-0.158202 -0.0814,0.124291 0.0319,0.248956 0.13702,0.353626 0.16779,0.167175 0.30525,0.148057 0.50811,0.04326 0.20287,-0.104785 0.2738,-0.231247 0.41142,-0.484975 0.21092,-0.388936 0.28362,-0.683809 0.24041,-1.045659 -0.0433,-0.361658 -0.13357,-0.568642 -0.35057,-0.744887 -0.64053,-0.520303 -1.33214,0.0352 -1.81665,1.018406 -0.69133,1.402969 -0.48101,2.537086 0.33713,3.117742 1.13348,0.804458 2.53617,0.106044 3.4847,-1.947132 0.56842,-1.230341 0.72003,-2.81224 0.44949,-4.08008 0.38407,0.03266 0.75984,0.06719 1.11216,0.105757 0.58042,0.06332 1.10723,0.133892 1.54598,0.209846 0.6581,0.113916 1.11785,0.240104 1.26262,0.371651 0.26777,0.243274 0.58391,0.692929 0.8333,1.140953 0.24927,0.447929 0.43193,0.894466 0.43193,1.132158 -0.0125,1.086137 -0.6874,1.235526 -1.39478,1.223462 h -4e-4 c -0.90936,-0.01585 -1.87158,-0.297749 -1.54522,0.800556 0.0112,0.03613 0.0251,0.071 0.0399,0.104139 0.0297,0.06594 0.0654,0.125548 0.10646,0.179016 0.59474,0.774876 2.3047,0.242665 3.08781,-1.088096 0.036,-0.0612 0.0699,-0.121414 0.10122,-0.180634 v -3.98e-4 c 0.18796,-0.355387 0.29011,-0.675665 0.30499,-0.992386 v -3.99e-4 c 0.007,-0.158296 -0.007,-0.316091 -0.0433,-0.476566 -0.0125,-0.0534 -0.0271,-0.107527 -0.044,-0.161801 -0.0853,-0.271832 -0.23175,-0.555711 -0.44054,-0.870234 -0.22256,-0.335329 -0.36836,-0.648876 -0.32364,-0.69683 0.0446,-0.04794 0.37667,0.0083 0.73768,0.12368 0.36099,0.115935 1.43047,0.299635 2.37664,0.408087 0.14232,0.01634 0.27859,0.03375 0.40844,0.05208 h 4e-4 c 0.25993,0.03655 0.49473,0.07697 0.70409,0.121302 0.20938,0.04431 0.39311,0.09263 0.55104,0.14457 0.23692,0.07779 0.41555,0.163851 0.53426,0.257921 0.51342,0.406848 1.01976,1.666957 1.21295,3.019193 0.0136,0.09367 0.0243,0.178733 0.0318,0.256726 0.0527,0.545623 -0.0555,0.761181 -0.57192,1.408478 -0.22689,0.284323 -0.54138,0.594104 -0.83219,0.830582 h -4e-4 c -0.17439,0.141723 -0.34024,0.257437 -0.47337,0.325204 -0.35522,0.180823 -0.8957,0.715923 -1.20101,1.189011 -0.0568,0.08796 -0.10783,0.170218 -0.15382,0.248699 v 3.99e-4 c -0.18391,0.313774 -0.2856,0.565109 -0.33414,0.862238 -0.0244,0.148531 -0.0354,0.308764 -0.0369,0.493788 -7e-4,0.09259 7e-4,0.19127 0.004,0.297954 0.0382,1.140805 0.30891,1.974779 0.69367,2.396473 0.0427,0.04692 0.0868,0.08877 0.1322,0.125226 0.2724,0.219137 0.58967,0.249717 0.9165,0.06054 0.74486,-0.431318 -0.67877,-0.998231 -0.90308,-2.545862 -0.0649,-0.458947 -0.0145,-0.849146 0.1243,-1.201027 v -3.98e-4 c 0.30553,-0.774355 1.0393,-1.363665 1.91521,-2.095317 l 1.00202,-0.962753 0.50363,0.641561 c 1.10591,1.409891 2.94673,1.824564 4.57259,1.030045 0.96597,-0.472054 1.24516,-1.40664 0.8217,-1.961142 -0.40753,-0.533657 -1.26908,-0.826236 -1.88086,0.46015 -0.0505,0.106205 -0.10509,0.196643 -0.16353,0.273527 v 3.99e-4 c -0.40888,0.537905 -1.00652,0.410899 -1.74382,0.410899 -0.6003,0 -1.59028,-1.051939 -1.71213,-1.766133 -0.008,-0.04757 -0.0125,-0.09351 -0.0125,-0.137755 -9e-5,-0.249844 -0.13275,-1.134812 -0.29457,-1.966756 -0.14148,-0.727523 -0.23512,-1.366557 -0.2296,-1.544236 v -3.98e-4 c 7e-4,-0.02491 0.004,-0.04111 0.008,-0.04644 0.0305,-0.03279 0.28947,0.04233 0.70487,0.19504 0.41538,0.152687 0.98733,0.382908 1.64374,0.660389 1.31293,0.55496 2.96425,1.298698 4.37924,1.988369 0.57053,0.278838 1.55325,0.856801 2.59281,1.58631 0.0267,0.05122 0.0543,0.10146 0.0832,0.149801 0.12442,0.124453 0.23835,0.26598 0.34161,0.421709 0.44728,0.674739 0.69145,1.62036 0.69027,2.640736 -7e-4,0.628025 -0.0949,1.284153 -0.29157,1.923115 v 4.18e-4 c -0.12292,0.399216 -0.28605,0.791647 -0.49167,1.166181 v 4.09e-4 c -0.12355,0.224686 -0.26212,0.443002 -0.41665,0.652391 -1.18952,1.611971 -3.16666,2.539504 -4.14364,1.473363 -0.50867,-0.55509 -0.64612,-1.610072 -0.30464,-2.589105 v -8.1e-5 c 0.0569,-0.163085 0.1273,-0.323981 0.21131,-0.480171 v -4.28e-4 c 0.084,-0.156301 0.18204,-0.307655 0.2942,-0.451719 0.14799,-0.190129 0.32754,-0.364865 0.52079,-0.511417 0.0966,-0.0734 0.19682,-0.13934 0.29791,-0.197039 0.20209,-0.11525 0.40857,-0.196088 0.60109,-0.229871 h 4e-4 c 0.14446,-0.02534 0.28102,-0.02425 0.40209,0.0094 0.0808,0.02202 0.15453,0.05819 0.21914,0.110178 0.0323,0.026 0.062,0.05564 0.0896,0.08975 0.0169,0.02092 0.0334,0.04581 0.0497,0.07372 0.11394,0.195121 0.20873,0.54344 0.19039,0.782122 -0.0156,0.204681 -0.12689,0.496057 -0.26169,0.724071 v 3.99e-4 c -0.0448,0.07594 -0.0925,0.14473 -0.14001,0.20105 -0.45305,0.566676 -0.64116,0.380575 -0.92215,0.346019 -0.14804,-0.01824 -0.1887,-0.427069 -0.33301,-0.283149 -0.13275,0.132203 -0.0217,0.320732 0.084,0.481789 0.0211,0.0322 0.0423,0.06038 0.0639,0.08527 0.0862,0.09955 0.17689,0.143626 0.28486,0.151071 0.081,0.0049 0.17166,-0.0094 0.27666,-0.03678 0.10496,-0.02758 0.18752,-0.06403 0.26207,-0.113828 0.12418,-0.08288 0.22632,-0.202063 0.37333,-0.376055 0.36054,-0.426688 0.52461,-0.774941 0.56036,-1.240274 0.0136,-0.17434 0.0136,-0.32389 -0.004,-0.456949 -0.007,-0.04424 -0.0142,-0.08703 -0.024,-0.128085 -0.0395,-0.16472 -0.11194,-0.306435 -0.22585,-0.447739 -0.67283,-0.83421 -1.67666,-0.336062 -2.5271,0.756488 -0.1517,0.1949 -0.28456,0.388357 -0.39949,0.579898 v 4.09e-4 c -0.8042,1.340728 -0.72196,2.578912 0.0482,3.419289 0.19053,0.20793 0.39849,0.371665 0.62011,0.491377 0.0887,0.04788 0.17936,0.08877 0.27214,0.122548 0.41762,0.151862 0.87514,0.160848 1.35149,0.02616 0.42341,-0.119832 0.86178,-0.352993 1.30031,-0.700024 0.43854,-0.347033 0.87723,-0.80796 1.30144,-1.382849 0.42414,-0.574825 0.79178,-1.190977 1.07071,-1.820189 v -4.08e-4 c 0.27893,-0.62931 0.46924,-1.271602 0.53948,-1.89907 0.058,-0.519058 0.0596,-1.064066 9e-4,-1.586293 -0.01,-0.08687 -0.0213,-0.173628 -0.0343,-0.259115 -0.0136,-0.08576 -0.0277,-0.170188 -0.0444,-0.253901 0.13532,0.118412 0.26777,0.237936 0.39648,0.358427 0.25745,0.241 0.49986,0.485657 0.71941,0.730477 0.38423,0.42843 0.69897,0.85821 0.90385,1.273119 0.0876,0.177718 0.15546,0.352801 0.19973,0.523816 0.46057,1.779128 1.03274,3.088678 1.67738,3.979163 -0.5692,0.66109 -1.64214,1.974683 -2.01525,2.903877 -0.35773,0.890929 -0.55811,1.915714 -0.42673,2.874237 0.0862,0.627563 0.7717,1.708447 0.7717,1.708447 0,0 1.10546,-0.549494 1.47989,-1.040446 0.57188,-0.749862 0.89109,-1.739345 1.011,-2.70083 0.10308,-0.827061 -0.0775,-2.140762 -0.24044,-3.072876 0.12987,0.122996 0.26166,0.23377 0.39574,0.327597 0.14933,0.104624 0.30118,0.190938 0.45509,0.259909 0.38066,0.170601 0.73049,0.24241 1.04757,0.23748 0.15856,-0.0033 0.30915,-0.02409 0.45098,-0.06213 0.63808,-0.170899 1.10417,-0.673185 1.37276,-1.252289 v -4.19e-4 c 0.0298,-0.06419 0.0573,-0.129519 0.0821,-0.195438 0.0783,-0.480966 0.04,-0.898285 -0.0369,-1.250708 -0.077,-0.3525 -0.19288,-0.640356 -0.26955,-0.863821 -0.01,-0.0279 -0.0199,-0.05231 -0.0306,-0.07291 -0.16273,-0.309811 -0.45162,0.164799 -0.37745,0.392482 0.24371,0.748354 0.26891,1.341821 0.14298,1.778527 v 4.09e-4 c -0.007,0.02044 -0.0147,0.03788 -0.0214,0.0577 -0.04,0.120966 -0.0899,0.231328 -0.15272,0.326378 -0.25575,0.387153 -0.68633,0.55975 -1.18567,0.514222 h -4e-4 c -1.21274,-0.110826 -2.82869,-1.50765 -3.31786,-4.240265 -0.0741,-0.5075 -0.22731,-1.269203 -0.34048,-1.692847 -0.0565,-0.211656 -0.0939,-0.419651 -0.10871,-0.58348 -0.0146,-0.163896 -0.007,-0.283893 0.0281,-0.320797 0.11405,-0.122386 1.28111,0.613155 2.33146,1.206256 0.35012,0.197706 0.68718,0.379623 0.96806,0.508614 1.52057,0.698263 2.75628,1.45708 4.45836,1.976345 0.39277,0.119833 0.81057,0.226969 1.26222,0.317578 0.24762,0.04962 0.46658,0.09416 0.66156,0.135371 0.58491,0.123806 0.95302,0.218789 1.22454,0.337188 0.0452,0.01966 0.088,0.04042 0.12839,0.06168 0.0809,0.04267 0.153,0.08844 0.22138,0.140136 0.17093,0.129198 0.31681,0.293089 0.507,0.521817 0.88436,1.063684 1.11966,1.754895 1.19876,3.517416 0.0136,0.298221 0.0205,0.544054 0.0203,0.746499 -6.9e-4,0.404574 -0.0314,0.636775 -0.10196,0.772516 v 4.08e-4 c -0.0351,0.06768 -0.0805,0.111438 -0.13702,0.140602 -0.15769,0.08131 -0.47695,0.252776 -0.70934,0.381255 -0.23238,0.128246 -0.53564,0.186802 -0.67421,0.129681 -0.1386,-0.05705 -0.42148,0.03155 -0.6287,0.196643 -0.0377,0.02996 -0.0711,0.05848 -0.10047,0.0856 h -4e-4 c -0.0143,0.01425 -0.0248,0.02567 -0.0373,0.03836 -0.0136,0.0126 -0.0279,0.02758 -0.0388,0.04044 -0.12837,0.152812 -0.11568,0.283876 0.01,0.506216 0.33528,0.590914 1.27003,0.577172 1.94095,-0.02855 0.17302,-0.15614 0.31816,-0.27503 0.44091,-0.357635 0.12256,-0.08243 0.223,-0.128554 0.30651,-0.139019 h 4e-4 c 0.0626,-0.0082 0.11556,0.0033 0.16165,0.03678 0.0154,0.01096 0.0302,0.02361 0.0442,0.03885 0.0554,0.06054 0.0996,0.155982 0.13812,0.285938 0.0633,0.213717 0.53858,0.81346 1.05616,1.332804 0.51833,0.520072 0.94243,0.826476 1.33391,0.925091 0.11182,0.0282 0.22098,0.03926 0.32892,0.03358 0.37777,-0.01933 0.74048,-0.244739 1.14911,-0.669604 0.10159,-0.105558 0.19079,-0.209055 0.26733,-0.31116 v -4.26e-4 c 0.53596,-0.715305 0.45785,-1.363365 -0.23038,-2.20422 -0.42704,-0.521751 -0.77752,-0.749546 -1.08375,-0.688832 h -4e-4 c -0.18361,0.03646 -0.35138,0.176845 -0.50997,0.419713 -0.44991,0.689023 -0.35964,0.837065 0.26806,0.439308 0.54138,-0.343005 0.58246,-0.342295 0.95571,0.01999 0.16755,0.162674 0.27879,0.357494 0.33452,0.566297 0.12243,0.459279 -0.0236,0.987514 -0.42896,1.396069 -0.46519,0.468805 -0.5161,0.476271 -1.28202,0.189431 -1.0492,-0.392972 -2.13776,-1.861596 -1.98539,-2.678811 0.11956,-0.641389 -0.16801,-2.863092 -0.48832,-3.771315 -0.11931,-0.33833 -0.41848,-0.908906 -0.66452,-1.267904 -0.24603,-0.359003 -0.44726,-0.692463 -0.44726,-0.741288 0,-0.04865 1.09672,-0.08131 2.43711,-0.07197 0.3809,0.0033 0.86036,-0.0033 1.375,-0.0126 1.04545,0.621874 2.02313,1.250405 2.7007,1.82298 0.4597,0.388516 0.79816,0.758168 1.01395,1.128138 0.19542,0.335031 0.29529,0.676941 0.29493,1.066474 -7e-4,0.398678 -0.0731,0.853947 -0.20271,1.351208 -0.12443,0.477587 -0.29634,0.972915 -0.48869,1.46496 -0.18803,0.480983 -0.38882,0.941165 -0.57455,1.364048 -0.18162,0.413562 -0.34662,0.786607 -0.45622,1.079278 -0.003,0.005 -0.004,0.008 -0.004,0.01096 -0.32008,0.918462 -0.2604,1.682145 0.0164,2.267515 0.27743,0.58633 0.76026,0.96985 1.24768,1.1634 0.14965,0.0594 0.30055,0.0994 0.44911,0.12445 -0.0959,0.43005 -0.43453,2.0343 -0.33114,2.93751 0.0827,0.722 0.31453,1.46641 0.73771,2.03364 0.27706,0.37138 1.10208,0.79335 1.10208,0.79335 0,0 0.52178,-0.80491 0.59098,-1.27472 0.10584,-0.71759 -0.0364,-1.48744 -0.29791,-2.15859 -0.30152,-0.77383 -1.21667,-1.87955 -1.58367,-2.30635 0.0241,9.4e-4 0.0486,0.005 0.0724,0.005 0.24059,0.005 0.30612,-0.11068 0.46555,-0.1181 0.18306,-0.009 0.43749,0.0905 0.63726,0.14695 0.2776,0.44461 1.31732,2.06599 2.14183,2.70244 0.66031,0.50966 1.46094,0.8969 2.27136,0.95873 0.5306,0.0407 1.5482,-0.39607 1.5482,-0.39607 0,0 -0.23531,-1.14837 -0.56483,-1.5963 -0.50331,-0.68418 -1.25185,-1.17694 -2.01602,-1.47618 -0.97633,-0.38231 -2.87749,-0.38434 -3.31894,-0.38005 -0.0978,-0.0714 -0.20687,-0.1441 -0.29231,-0.1758 -0.0983,-0.0365 -0.20632,-0.0346 -0.31024,-0.0328 -7e-4,2e-5 -0.003,4e-4 -0.003,4e-4 0.54639,-0.38336 1.46812,-1.07361 1.87787,-1.641977 0.41482,-0.575423 0.73877,-1.279524 0.81013,-2.00199 0.0468,-0.473007 -0.2632,-1.395259 -0.2632,-1.395259 0,0 -0.89853,0.177747 -1.2559,0.459326 -0.54584,0.430096 -0.95,1.084608 -1.20436,1.758908 -0.30869,0.818281 -0.37481,2.391702 -0.38902,2.893082 -0.0396,0.003 -0.0799,0.008 -0.12319,0.003 -0.20462,-0.0142 -0.42453,-0.07 -0.63915,-0.16741 -0.42403,-0.19232 -0.81516,-0.54207 -1.0244,-1.03403 -0.2037,-0.47893 -0.24422,-1.113718 0.0557,-1.913904 0.12538,-0.269672 0.30281,-0.614821 0.50809,-1.02442 0.20651,-0.412039 0.43307,-0.873587 0.64699,-1.358038 0.21879,-0.495456 0.42162,-1.008615 0.57683,-1.51542 0.16068,-0.524717 0.27072,-1.04311 0.29419,-1.529813 0.0259,-0.543515 -0.0936,-1.038827 -0.34198,-1.508204 -0.26443,-0.499639 -0.66829,-0.956286 -1.1581,-1.392058 -0.33532,-0.298319 -0.73687,-0.605262 -1.17897,-0.913901 -0.12826,-0.08958 -0.26618,-0.179442 -0.4006,-0.269134 0.35467,-0.01261 0.71183,-0.02316 1.05653,-0.03757 0.48005,-0.02011 0.93976,-0.04295 1.34961,-0.06736 0.34472,-0.02044 0.65149,-0.03819 0.92661,-0.05247 h 4e-4 c 0.27521,-0.01425 0.51872,-0.02534 0.73735,-0.03281 0.43726,-0.01585 0.77423,-0.01585 1.06364,0.0033 0.57877,0.03439 0.96659,0.139339 1.58141,0.339599 0.99726,0.324933 1.61713,0.6985 1.96563,1.21426 0.1583,0.234358 0.26066,0.498167 0.31696,0.800162 0.0382,0.204409 0.0509,0.355051 0.0183,0.493392 v 3.99e-4 c -0.0544,0.23041 -0.2347,0.426469 -0.63243,0.778128 -0.82596,0.730334 -1.59953,0.547132 -2.05333,0.0094 -0.1421,-0.168412 -0.21221,-0.333287 -0.21803,-0.541442 v -1.69e-4 c -9e-4,-0.04152 2e-4,-0.08512 0.004,-0.130459 0.007,-0.09099 0.0259,-0.190493 0.0534,-0.30157 0.12181,-0.492487 0.26624,-0.618588 0.77093,-0.671584 0.0799,-0.0082 0.15929,-0.01096 0.23669,-0.0065 0.15482,0.0065 0.30151,0.03727 0.42859,0.08243 0.19062,0.06785 0.33687,0.171057 0.39798,0.286331 0.0405,0.07689 0.0435,0.159029 -0.003,0.239889 -0.14088,0.528442 -1.05708,-0.05198 -1.15882,0.525036 0.0476,0.09177 0.10034,0.162592 0.15681,0.216664 v 3.98e-4 c 0.0282,0.02709 0.0574,0.04947 0.0874,0.06849 0.0898,0.0569 0.18631,0.07973 0.28448,0.08037 0.0655,4.08e-4 0.13152,-0.0094 0.19712,-0.02441 0.26231,-0.06213 0.6098,-0.146314 0.75826,-0.431713 0.037,-0.07117 0.0662,-0.154398 0.0866,-0.243486 v -4.29e-4 c 0.0617,-0.267804 0.0457,-0.590899 -0.0675,-0.818169 -0.15098,-0.303011 -0.56986,-0.512114 -1.20585,-0.627152 -1.32444,0 -1.94251,1.73977 -1.08789,2.728461 0.057,0.06594 0.12043,0.128554 0.19077,0.187021 0.0521,0.04342 0.10907,0.08147 0.16988,0.1146 0.12155,0.06594 0.25875,0.111275 0.40617,0.137435 0.81068,0.143785 1.92765,-0.291946 2.41397,-1.066474 v -3.99e-4 c 0.0663,-0.105558 0.12081,-0.21728 0.16129,-0.334808 v -3.99e-4 c 0.0136,-0.0393 0.0256,-0.0788 0.0358,-0.119383 0.0649,-0.255964 0.15366,-0.438244 0.25126,-0.527824 0.0195,-0.01793 0.0392,-0.03217 0.0594,-0.0425 0.0403,-0.0206 0.0817,-0.026 0.12317,-0.01425 0.14659,0.04091 0.90028,0.152498 1.67475,0.248702 0.37087,0.04614 0.69123,0.07388 0.96993,0.07973 0.18581,0.0033 0.35306,-0.0033 0.50438,-0.01951 0.83221,-0.0951 1.18167,-0.527981 1.47727,-1.509804 0.0338,-0.244044 0.0596,-0.430574 0.0761,-0.584306 v -4.08e-4 c 0.0165,-0.153765 0.0236,-0.274668 0.0199,-0.388057 -0.007,-0.226779 -0.0587,-0.422804 -0.16389,-0.78694 -0.83039,-1.441296 -2.90268,-2.067653 -3.50971,-1.060878 -0.5458,0.905196 -0.57827,1.570677 -0.10308,2.113323 0.51103,0.583527 1.05875,0.640545 1.55196,0.1618 0.41175,-0.399754 0.46992,-1.301147 0.084,-1.301147 -0.14598,0 -0.25351,0.148691 -0.23894,0.330388 0.0409,0.50942 -0.54429,0.832578 -0.91315,0.504204 -0.3519,-0.313282 -0.3806,-0.758454 -0.0896,-1.252703 0.0415,-0.07056 0.0894,-0.142346 0.14411,-0.214653 0.33368,-0.442064 0.40923,-0.456583 1.14201,-0.22107 0.50357,0.161849 0.96751,0.509498 1.29548,0.970758 0.47401,0.666689 0.49451,0.777209 0.28485,1.527847 -0.1243,0.445045 -0.38911,0.902993 -0.58875,1.01762 -0.94241,0.541029 -3.7236,-0.103852 -4.51957,-1.048072 -0.55057,-0.653036 -1.60903,-1.157575 -3.01019,-1.434508 -0.69789,-0.137915 -1.26897,-0.307832 -1.26897,-0.377658 0,-0.06975 0.53763,-0.388692 1.19468,-0.708837 3.80676,-1.923513 6.32235,-3.924429 7.04518,-7.600696 0.30487,-0.109855 0.62655,-0.259386 0.95758,-0.457752 0.64771,-0.388101 1.24665,-0.909994 1.77075,-1.511401 1.00865,-1.095757 1.50754,-2.287651 1.74831,-3.344 0.26427,-0.526793 1.20655,-2.462655 1.36041,-3.661175 0.0307,-0.240251 0.0502,-0.485537 0.0562,-0.73248 0.003,-0.09263 0.003,-0.185523 0.001,-0.278322 z m -1.2488,-1.316385 c 0.001,0.116469 -0.003,0.212806 -0.01,0.33921 -0.0177,0.283147 -0.0918,0.854009 -0.20347,1.568279 -0.0326,0.210614 -0.072,0.474866 -0.0866,0.587509 -0.0546,0.417715 -0.0888,0.834291 -0.0982,1.197423 -0.008,0.344339 -0.008,0.431998 0.0221,0.919502 0.0298,0.500502 0.0363,0.566113 0.0876,0.913489 0.0439,0.29589 0.0435,0.329199 -0.003,0.249502 v 0 c -0.052,-0.09117 -0.13206,-0.342343 -0.19115,-0.600719 -0.0407,-0.17863 -0.1037,-0.521332 -0.15083,-0.819779 -0.0344,-0.217772 -0.0392,-0.259047 -0.0568,-0.48698 -0.0328,-0.426244 -0.0389,-0.705437 -0.0259,-1.163395 0.007,-0.243235 0.017,-0.39498 0.0459,-0.703641 0.0393,-0.413803 0.0659,-0.607077 0.19115,-1.385261 0.0562,-0.349546 0.12293,-0.828041 0.15569,-1.119336 0.0258,-0.231552 0.0483,-0.526754 0.0611,-0.822979 0.0136,-0.3085 0.0154,-0.319799 0.0291,-0.305569 0.0293,0.03028 0.11532,0.340484 0.15009,0.539047 0.0326,0.186592 0.0385,0.247896 0.0613,0.632757 0.0125,0.207636 0.0187,0.344498 0.0202,0.460941 z m -8.0013,36.718728 c 0.004,0.0193 -0.004,0.0158 -0.24899,-0.10702 -0.2348,-0.11792 -0.47368,-0.22572 -0.66456,-0.30315 -0.24028,-0.097 -0.64116,-0.24452 -0.93741,-0.34481 -0.65962,-0.2232 -0.82118,-0.28278 -1.15921,-0.4273 -0.25196,-0.10812 -0.37369,-0.16535 -0.56486,-0.26553 -0.36003,-0.18848 -0.57282,-0.31698 -0.88666,-0.53543 -0.16787,-0.11668 -0.19735,-0.13966 -0.34944,-0.26793 -0.20849,-0.17578 -0.44373,-0.38624 -0.56263,-0.50341 -0.17195,-0.16953 -0.32873,-0.35552 -0.37484,-0.44493 -0.0403,-0.0782 -0.0142,-0.0639 0.19378,0.1078 0.24426,0.2014 0.29187,0.2364 0.66452,0.48457 0.36297,0.24176 0.42948,0.28214 0.69965,0.42492 0.28492,0.1506 0.62283,0.30119 0.97105,0.43292 0.0938,0.0357 0.31627,0.11476 0.49429,0.17621 0.60391,0.20788 1.0796,0.38867 1.30667,0.49619 0.20257,0.0961 0.30333,0.1555 0.6126,0.36123 0.28668,0.19058 0.33151,0.22342 0.46035,0.33639 0.13709,0.12015 0.33602,0.33827 0.34569,0.37926 z m -3.97413,-8.329971 c 0.008,0.03172 -0.0483,0.269692 -0.0975,0.413691 -0.0463,0.135372 -0.0645,0.177796 -0.18892,0.438529 -0.13396,0.281405 -0.18083,0.368289 -0.28223,0.527032 -0.1137,0.177682 -0.36744,0.520312 -0.6974,0.94112 -0.097,0.124124 -0.21797,0.280832 -0.26807,0.348429 -0.18603,0.25046 -0.35854,0.508324 -0.49576,0.74168 -0.13002,0.22134 -0.16023,0.27944 -0.31734,0.60993 -0.16149,0.3392 -0.18141,0.38471 -0.27365,0.63279 -0.0784,0.21131 -0.0907,0.23288 -0.0911,0.16218 -6e-4,-0.0809 0.0384,-0.27794 0.0938,-0.47096 0.0379,-0.13347 0.12131,-0.38323 0.19863,-0.59752 0.0564,-0.15646 0.0679,-0.1851 0.13887,-0.34122 0.1326,-0.291958 0.22975,-0.477143 0.40357,-0.770938 0.0922,-0.156139 0.15361,-0.250759 0.28373,-0.440528 0.17475,-0.254217 0.26173,-0.369542 0.62348,-0.826568 0.16242,-0.20533 0.37809,-0.490713 0.50436,-0.667606 0.1001,-0.140763 0.22151,-0.324346 0.33676,-0.512622 0.12018,-0.195946 0.12499,-0.202366 0.12879,-0.187419 z m -1.69494,10.505781 c -9e-4,0.0841 -0.005,0.15282 -0.0136,0.16699 -0.007,0.0142 -0.01,0.005 -0.0791,-0.21704 -0.0658,-0.21389 -0.13895,-0.42491 -0.2016,-0.5887 -0.0793,-0.206 -0.21831,-0.54187 -0.32556,-0.78536 -0.23883,-0.54202 -0.29511,-0.6774 -0.40243,-0.97155 -0.0798,-0.21949 -0.11594,-0.32819 -0.16724,-0.5046 -0.0968,-0.33208 -0.14561,-0.53776 -0.20312,-0.85663 -0.0308,-0.17052 -0.0352,-0.2017 -0.0519,-0.36845 -0.0229,-0.22847 -0.043,-0.49249 -0.0474,-0.63196 -0.007,-0.20175 0.003,-0.40299 0.0233,-0.48096 0.0176,-0.0682 0.0243,-0.0441 0.0489,0.18181 0.0292,0.26521 0.0373,0.31471 0.11121,0.68722 0.0718,0.36292 0.0874,0.42728 0.15944,0.67723 0.0761,0.26354 0.17991,0.56095 0.29902,0.85463 0.0322,0.0793 0.11095,0.26393 0.17473,0.41088 0.21692,0.49822 0.37931,0.90009 0.44613,1.10331 0.0595,0.18151 0.0835,0.27803 0.14484,0.58709 0.057,0.2864 0.0645,0.33261 0.0765,0.47618 0.007,0.0764 0.008,0.17588 0.008,0.25991 z m -6.01477,-28.215361 c -0.003,0.01058 -0.0363,0.03962 -0.15865,0.143757 -0.15681,0.133207 -0.30769,0.273934 -0.42189,0.390876 -0.14342,0.14758 -0.37236,0.400532 -0.53535,0.591516 -0.36282,0.425227 -0.45508,0.527253 -0.66266,0.730871 -0.15505,0.151544 -0.23309,0.223179 -0.36401,0.329182 -0.24601,0.200306 -0.40351,0.310509 -0.65671,0.45974 -0.13533,0.07973 -0.16099,0.09334 -0.29978,0.155032 -0.19015,0.08465 -0.41329,0.173958 -0.53386,0.214255 -0.17425,0.05803 -0.35574,0.09639 -0.43418,0.09132 h -4e-4 c -0.0679,-0.0049 -0.0495,-0.01902 0.13701,-0.104949 0.21958,-0.101299 0.25924,-0.122995 0.5518,-0.305561 0.28514,-0.177447 0.33452,-0.212304 0.52004,-0.362044 0.19559,-0.158043 0.40739,-0.358808 0.6089,-0.57668 0.0544,-0.05864 0.17934,-0.200258 0.27814,-0.314375 0.33473,-0.387693 0.61057,-0.684791 0.7575,-0.816584 0.13126,-0.117477 0.20497,-0.17082 0.44763,-0.322381 0.22483,-0.140516 0.26202,-0.161175 0.38266,-0.211457 0.1284,-0.0534 0.34577,-0.110429 0.37819,-0.09892 0.004,0.0014 0.007,0.0029 0.007,0.0067 z m -4.66742,2.689619 c 0.003,0.0049 0.003,0.0094 -8.9e-4,0.01096 -0.007,0.0033 -0.0173,7.97e-4 -0.0343,-0.0033 -0.0775,-0.0126 -0.24669,-0.09337 -0.40505,-0.191035 -0.10945,-0.06768 -0.30919,-0.207551 -0.4775,-0.334794 -0.1228,-0.09274 -0.14477,-0.111437 -0.26059,-0.221056 -0.21657,-0.205076 -0.34776,-0.349932 -0.54692,-0.603137 -0.1061,-0.134106 -0.16789,-0.222577 -0.28822,-0.406887 -0.16098,-0.247387 -0.23041,-0.368117 -0.49765,-0.868238 -0.12005,-0.224599 -0.29185,-0.525239 -0.4017,-0.702838 -0.0878,-0.140922 -0.20573,-0.313826 -0.33152,-0.48057 -0.13084,-0.173834 -0.13465,-0.180916 -0.11869,-0.182615 0.0339,-0.004 0.23433,0.10308 0.3487,0.185416 0.10745,0.07738 0.1397,0.10603 0.33041,0.295956 0.20585,0.204853 0.26661,0.274213 0.37071,0.419708 0.11644,0.163098 0.3252,0.517879 0.5727,0.974751 0.0731,0.134587 0.16609,0.302059 0.20719,0.372045 0.15219,0.259895 0.31818,0.50549 0.47674,0.705652 0.15048,0.18967 0.19141,0.235276 0.43345,0.475385 0.24821,0.246767 0.28244,0.277331 0.47599,0.427688 0.0927,0.07197 0.13805,0.109369 0.14784,0.12603 z m -9.20491,9.278691 c -0.007,0.186023 -0.0308,0.538619 -0.0607,0.843422 -0.0217,0.222401 -0.0277,0.264266 -0.0679,0.491774 -0.0756,0.425469 -0.14012,0.699693 -0.26806,1.142976 -0.0675,0.235578 -0.11582,0.380574 -0.22139,0.6736 -0.14204,0.392699 -0.21619,0.573745 -0.53275,1.297548 -0.14217,0.32514 -0.32711,0.773449 -0.43194,1.048466 -0.0831,0.218692 -0.17922,0.500257 -0.26619,0.785735 -0.0908,0.297224 -0.0948,0.307354 -0.10459,0.289537 -0.0205,-0.03788 -0.0259,-0.36531 -0.008,-0.56907 0.0155,-0.191477 0.0255,-0.253 0.10047,-0.635157 0.0809,-0.412423 0.11245,-0.541458 0.19116,-0.78374 0.0884,-0.271307 0.30347,-0.807707 0.59099,-1.472967 0.0847,-0.19623 0.18864,-0.442871 0.23109,-0.548651 0.15777,-0.392149 0.29552,-0.789192 0.39608,-1.140964 0.0954,-0.333605 0.11582,-0.419205 0.21021,-0.903484 0.0973,-0.497071 0.10782,-0.563284 0.14559,-0.917101 0.0324,-0.301393 0.0405,-0.333557 0.0645,-0.242694 0.0273,0.103815 0.0405,0.371668 0.0324,0.64077 z M 134.40124,65.837408 c 0.005,0.0082 -0.008,0.01395 -0.0362,0.02129 v -3.99e-4 c -0.0838,0.02209 -0.28979,0.02062 -0.49243,-0.004 -0.14005,-0.01688 -0.40256,-0.06374 -0.62831,-0.112596 -0.16472,-0.0356 -0.19546,-0.04431 -0.36064,-0.09974 -0.30888,-0.103614 -0.50522,-0.186444 -0.818,-0.34558 -0.16629,-0.08408 -0.26751,-0.143232 -0.47039,-0.270317 -0.2718,-0.170828 -0.39498,-0.258499 -0.88591,-0.630349 -0.22053,-0.166995 -0.52671,-0.385398 -0.71605,-0.510625 -0.15067,-0.09919 -0.34673,-0.215965 -0.54731,-0.323185 -0.20879,-0.111922 -0.21576,-0.117153 -0.20046,-0.126099 0.0324,-0.01902 0.28186,-0.004 0.43341,0.02395 0.14241,0.02732 0.18719,0.04096 0.46331,0.141372 0.29799,0.108299 0.38993,0.148945 0.55925,0.245083 0.18958,0.107914 0.5569,0.363065 1.00876,0.701233 0.13329,0.09947 0.30163,0.22238 0.37407,0.272731 0.13424,0.09358 0.27002,0.182401 0.40359,0.263114 0.13355,0.08072 0.26481,0.153622 0.38902,0.216261 0.23558,0.118611 0.29695,0.144934 0.64699,0.271521 0.35917,0.130391 0.40719,0.14492 0.66864,0.205056 0.13917,0.03187 0.20031,0.04833 0.20867,0.0609 z m -20.67372,-7.001964 c -0.004,0.004 -0.0159,0.01058 -0.0337,0.01767 h -3.9e-4 c -0.0825,0.03318 -0.29698,0.06772 -0.51334,0.08287 -0.1497,0.01058 -0.43408,0.01697 -0.68022,0.01569 -0.17961,-7.97e-4 -0.21344,-0.0029 -0.39796,-0.01993 -0.3451,-0.03266 -0.56797,-0.06816 -0.92961,-0.146581 -0.19218,-0.04121 -0.3111,-0.07284 -0.55103,-0.143771 -0.32166,-0.09546 -0.46996,-0.147088 -1.06515,-0.372436 -0.26734,-0.101199 -0.63542,-0.230678 -0.86089,-0.302355 -0.17929,-0.05664 -0.40975,-0.119956 -0.64288,-0.174611 -0.24252,-0.05718 -0.25134,-0.06022 -0.23746,-0.07058 0.0296,-0.02167 0.29256,-0.0534 0.45698,-0.05568 0.15451,-0.0029 0.2042,0.0014 0.51445,0.03719 0.33481,0.03855 0.43996,0.0565 0.63803,0.107377 0.22177,0.05716 0.66194,0.206498 1.20888,0.410482 0.16129,0.05985 0.36416,0.133464 0.45095,0.163008 0.32187,0.109644 0.64639,0.2009 0.93334,0.26231 0.27216,0.05809 0.34233,0.06946 0.73547,0.114202 0.40356,0.04633 0.45668,0.05036 0.74257,0.05489 0.18264,0.0029 0.24339,0.0067 0.23183,0.02047 z m -13.10103,30.534523 c -9e-4,0.0049 -0.003,0.0033 -0.007,7.59e-4 -0.028,-0.01634 -0.15534,-0.23196 -0.22139,-0.37485 -0.0621,-0.134267 -0.0787,-0.179809 -0.17323,-0.466952 -0.10196,-0.309826 -0.12961,-0.409504 -0.16872,-0.605118 -0.0437,-0.219139 -0.103217,-0.669762 -0.163157,-1.237883 -0.0179,-0.167459 -0.0411,-0.377261 -0.0531,-0.466158 -0.0431,-0.329783 -0.10171,-0.653893 -0.16763,-0.931923 -0.0628,-0.263572 -0.0814,-0.329624 -0.201587,-0.693223 -0.12306,-0.373377 -0.14089,-0.4219 -0.2494,-0.673994 -0.0922,-0.214239 -0.0989,-0.239459 -0.0489,-0.189844 0.0574,0.05721 0.16802,0.229743 0.26432,0.412501 0.0666,0.126354 0.182747,0.372364 0.278127,0.588299 0.0697,0.157568 0.0814,0.187703 0.14037,0.356827 0.11044,0.316263 0.171567,0.52697 0.253857,0.877852 0.0441,0.186246 0.0664,0.303961 0.10671,0.545055 0.0538,0.323317 0.0729,0.475955 0.13547,1.095721 0.0282,0.278362 0.0745,0.657493 0.1087,0.886254 0.0275,0.181742 0.0696,0.4112 0.11943,0.63915 0.0389,0.178099 0.0491,0.227128 0.0463,0.237478 z M 96.660208,68.322394 h -4e-4 c -0.004,0.275673 -0.0113,0.404809 -0.0542,0.926302 -0.0191,0.234237 -0.0379,0.554522 -0.0444,0.748891 -0.004,0.154462 -0.004,0.351035 0.004,0.547465 0.007,0.204588 0.007,0.211617 -0.003,0.203036 -0.0215,-0.0182 -0.0975,-0.217747 -0.13219,-0.346815 -0.0324,-0.121302 -0.04,-0.161655 -0.0765,-0.414488 -0.0395,-0.272823 -0.0479,-0.359519 -0.0508,-0.527437 -0.003,-0.188079 0.0154,-0.569596 0.0523,-1.048047 0.0112,-0.141068 0.0233,-0.31802 0.0269,-0.393283 0.0146,-0.279154 0.015,-0.556514 9e-4,-0.796951 -0.0136,-0.227962 -0.0191,-0.285674 -0.0658,-0.605917 -0.0476,-0.328822 -0.0557,-0.371941 -0.109707,-0.598322 -0.0461,-0.192337 -0.0474,-0.21444 -0.0125,-0.164987 v 3.98e-4 c 0.0202,0.02865 0.0474,0.08314 0.0761,0.151372 0.0289,0.06839 0.0595,0.150325 0.0866,0.23389 0.0378,0.115412 0.0993,0.337928 0.14782,0.532235 0.0352,0.141779 0.0408,0.168867 0.0654,0.318377 0.0457,0.279557 0.0656,0.463658 0.0819,0.766925 0.008,0.161051 0.01,0.261753 0.007,0.467354 z m -0.34645,-3.008003 c -0.003,0.01365 -0.0359,-0.02144 -0.133287,-0.13172 -0.15251,-0.172524 -0.18273,-0.203394 -0.421486,-0.427713 -0.23242,-0.218658 -0.27569,-0.255754 -0.4525,-0.394074 -0.186526,-0.14576 -0.410686,-0.300384 -0.643993,-0.444127 -0.0629,-0.03883 -0.21242,-0.127453 -0.332249,-0.197035 -0.406787,-0.23578 -0.725224,-0.43267 -0.875093,-0.540651 -0.1337,-0.09654 -0.19948,-0.15191 -0.397597,-0.338007 -0.18366,-0.172388 -0.21179,-0.201305 -0.291579,-0.296745 -0.0849,-0.101621 -0.203553,-0.277442 -0.206473,-0.305966 -8.9e-4,-0.01365 0.005,-0.0093 0.165783,0.110965 0.154369,0.116082 0.312479,0.226113 0.439776,0.308351 0.16041,0.103216 0.429369,0.265886 0.629066,0.380458 0.444697,0.254989 0.553267,0.320855 0.778026,0.471369 0.167517,0.112458 0.248207,0.169738 0.373337,0.26712 0.235739,0.183152 0.373366,0.302608 0.573436,0.497798 0.10696,0.104425 0.12553,0.124105 0.22026,0.233477 0.129767,0.149816 0.275106,0.326611 0.347216,0.423295 0.10458,0.139703 0.19671,0.287682 0.220267,0.354031 0.005,0.0144 0.008,0.02462 0.007,0.02918 z M 95.376325,66.1586 c 0.0112,0.01488 -0.0489,0.0152 -0.228126,0.0093 -0.28051,-0.01058 -0.3333,-0.0093 -0.732077,0.01756 -0.388426,0.02583 -0.457976,0.03318 -0.728746,0.07885 -0.285566,0.04808 -0.610163,0.125188 -0.933332,0.221064 -0.0872,0.02583 -0.291323,0.0905 -0.453603,0.143772 -0.550399,0.181051 -0.991959,0.311605 -1.213348,0.358836 -0.19768,0.04189 -0.30229,0.05475 -0.63319,0.07686 -0.306559,0.02075 -0.355679,0.02181 -0.506969,0.01208 -0.161,-0.01058 -0.416149,-0.05742 -0.443519,-0.08126 -0.0136,-0.01058 -0.004,-0.01365 0.237439,-0.05969 0.23231,-0.04406 0.46243,-0.09733 0.64213,-0.146171 0.226039,-0.06196 0.596219,-0.175497 0.865388,-0.265512 0.59924,-0.200505 0.748419,-0.245875 1.070379,-0.327202 0.24016,-0.06022 0.358713,-0.08609 0.549902,-0.118898 0.359947,-0.06211 0.581227,-0.08688 0.921763,-0.102544 0.18209,-0.0082 0.21513,-0.0082 0.391257,0 0.241329,0.01208 0.519659,0.03318 0.665646,0.05166 0.21117,0.02679 0.418946,0.07362 0.497276,0.11206 0.0172,0.0083 0.0282,0.01505 0.0317,0.01995 z"
       style="color:#000000;font-style:normal;font-variant:normal;font-weight:normal;font-stretch:normal;font-size:medium;line-height:normal;font-family:sans-serif;font-variant-ligatures:normal;font-variant-position:normal;font-variant-caps:normal;font-variant-numeric:normal;font-variant-alternates:normal;font-feature-settings:normal;text-indent:0;text-align:start;text-decoration:none;text-decoration-line:none;text-decoration-style:solid;text-decoration-color:#000000;letter-spacing:normal;word-spacing:normal;text-transform:none;writing-mode:lr-tb;direction:ltr;text-orientation:mixed;dominant-baseline:auto;baseline-shift:baseline;text-anchor:start;white-space:normal;shape-padding:0;clip-rule:nonzero;display:inline;overflow:visible;visibility:visible;opacity:1;isolation:auto;mix-blend-mode:normal;color-interpolation:sRGB;color-interpolation-filters:linearRGB;solid-color:#000000;solid-opacity:1;vector-effect:none;fill:#000000;fill-opacity:1;fill-rule:evenodd;stroke:none;stroke-width:0.92107356;stroke-linecap:butt;stroke-linejoin:miter;stroke-miterlimit:4;stroke-dasharray:none;stroke-dashoffset:0;stroke-opacity:1;color-rendering:auto;image-rendering:auto;shape-rendering:auto;text-rendering:auto;enable-background:accumulate" />
    <path
       style="fill:#000000;stroke-width:0.99999994"
       d="m 15.384353,49.147905 c 2.047428,-0.01651 4.689838,-0.744136 6.103105,-2.703819 0.917353,-1.371444 0.735819,-4.534377 -1.594269,-4.496752 -0.714733,0.283202 -0.844314,1.03415 -0.263131,1.524148 0.578143,0.487436 0.399526,1.303101 -0.509752,2.328961 -1.024112,1.15542 -2.078394,1.632129 -3.607483,1.630734 -2.353872,-0.0022 -4.046413,-1.017286 -5.058316,-3.033364 -1.0430209,-2.078094 -0.5561485,-3.570118 1.629352,-4.993645 0.678023,-0.441632 1.715864,-0.66514 3.70035,-0.797087 2.285368,-0.148249 5.146621,0.288855 7.777859,-0.237377 2.945484,-0.836925 6.887801,-1.940672 8.983104,-5.407119 2.018065,-3.154236 2.450472,-5.215981 1.501914,-9.592864 -0.468468,-1.605649 -1.843013,-3.879712 -3.046134,-5.11362 0.280876,0.1205 0.546622,0.237358 0.785268,0.338812 2.7034,1.149313 2.880418,1.233141 3.830369,1.807866 2.039167,1.233721 7.917154,3.617886 10.083611,4.089972 4.304777,0.938039 11.671549,0.564193 14.879829,-0.754866 2.255954,-0.927519 5.558196,-3.198692 6.934289,-4.769142 1.367906,-1.568355 2.786993,-3.623323 3.812828,-5.704229 0.364819,-0.854362 0.689794,-2.141769 0.761017,-3.6574376 0.485989,-1.545883 0.3281,-3.263152 -0.819835,-5.010638 -2.237938,-3.6682968 -7.514336,-3.7304227 -9.763726,-1.025712 -1.660553,2.636357 -0.605022,5.925119 2.087509,7.6670836 0.02856,0.389429 -0.0292,0.829572 -0.147045,1.290891 -2.123662,0.2173 -4.743951,-1.294654 -8.396991,-4.7979756 -4.2396,-4.059893 -9.051881,-8.2124591 -16.130476,-5.5847679 -2.736429,1.3178939 -5.363054,4.3615979 -4.750297,7.9544055 0.271057,0.831349 0.7795,1.694619 1.356415,2.389719 -8.764472,-1.814659 -16.755203,-0.528677 -25.8952362,3.930347 -2.5170678,1.27505 -6.6735204,4.459519 -7.6669332,5.87415 -0.6639745,0.945532 -0.7478223,1.235403 -0.5340012,1.845969 0.3735063,1.066618 1.5656094,1.096949 2.6875564,0.06848 1.2950983,-1.194798 2.5057588,-3.043479 4.4247374,-3.989045 2.8953068,-1.462183 3.8308888,-1.682093 7.1324118,-1.678106 3.624017,0.0047 4.370477,0.292575 6.00404,2.316088 1.308671,1.621066 2.273235,2.763304 1.764014,4.474608 -0.411325,1.382325 -0.97769,3.478815 -0.46177,4.472036 0.813333,1.565829 3.764593,1.556802 6.0577,0.42635 -2.233393,2.353721 -5.753659,3.849603 -9.450034,3.885033 -5.638093,0.577335 -11.9632897,1.487909 -11.9054117,8.885886 0.1511308,3.034532 3.1950857,5.743166 6.8677337,6.111009 0.262885,0.02513 0.54334,0.03738 0.835829,0.03501 z M 56.27499,17.808639 c -2.093369,0.007 -4.509567,-0.199692 -5.997334,-0.557138 -0.791872,-0.190255 -5.063846,-1.680943 -6.868249,-2.396413 -0.845289,-0.325667 -1.678852,-0.623531 -2.503876,-0.899042 0.174266,-0.0453 0.337152,-0.0988 0.485504,-0.160654 1.696303,-0.707348 2.550933,-2.55096 1.555056,-3.355186 -1.132651,-0.9146776 -2.25076,-1.3479036 -3.117849,-1.2074756 -1.144732,0.185394 -2.120663,-0.545371 -2.303694,-1.725479 -0.199601,-1.286981 0.637546,-2.578757 2.262934,-3.490607 1.123271,-0.630162 1.672153,-0.765263 3.087924,-0.762075 2.296399,0.0052 3.103644,0.430932 6.330635,3.340769 6.130054,5.5275796 8.537769,7.4251956 11.108792,8.7550956 0.457248,0.206288 0.957937,0.341333 1.486434,0.413477 -0.575801,0.741621 -1.217257,1.339008 -1.816638,1.610656 -0.648513,0.29391 -2.081462,0.428615 -3.709639,0.434072 z"
       id="path872" />
    <path
       style="fill:#000000;stroke-width:0.99999994"
       d="m 127.27239,10.108191 c -2.38312,0.195618 -4.50085,1.923297 -5.56636,3.440519 -2.11357,3.039595 -2.00119,7.214715 0.25346,9.419747 5.69954,5.140089 10.53672,0.969202 14.66704,-2.910367 5.2286,-5.952325 15.12355,-6.685441 17.97201,2.024669 0.26011,0.79537 0.23537,1.382608 -0.001,2.410823 -0.24424,1.06244 -0.32664,1.79543 -0.25877,2.164552 -0.21852,0.747731 0.58784,0.479217 2.17729,-0.756609 0.83384,-0.648339 1.35722,-0.91886 2.18943,-1.01973 9.11363,-1.10461 12.62933,8.154849 9.4336,15.399681 -1.77755,5.375454 -3.52066,11.513687 3.55588,14.496638 2.95528,1.107457 6.794,-0.555267 8.66109,-3.751567 1.06002,-1.834252 1.78938,-5.028384 0.32119,-7.419455 -0.92867,-1.398837 -4.01905,-2.531198 -4.94525,-0.392119 -0.0252,0.767613 0.63661,1.193892 1.34371,0.865267 0.7034,-0.326902 1.40769,0.170425 2.01023,1.420091 0.67864,1.407493 0.69735,2.564261 0.0647,3.957289 -0.974,2.144417 -2.64015,3.270569 -4.97994,3.365538 -2.41174,0.09788 -3.6328,-0.958195 -4.08748,-3.534188 -0.14106,-0.799172 0.0744,-1.836892 0.76796,-3.699698 0.80227,-2.143714 2.40035,-4.571784 2.98511,-7.185826 0.41831,-3.027933 0.9938,-7.074179 -1.44571,-10.40627 -2.17375,-3.133575 -3.96116,-4.373692 -8.52538,-5.305199 -1.9265,-0.259123 -5.11919,0.169426 -6.67716,0.895724 -0.29762,0.138808 -0.68679,0.431562 -1.08036,0.78592 0.18369,-0.563603 0.30682,-1.103724 0.30712,-1.465298 10e-4,-1.716145 -0.95865,-4.785004 -2.00813,-6.418007 -2.77485,-3.734673 -4.6568,-4.827003 -8.42113,-5.468848 -4.05691,-0.798339 -7.48805,1.432171 -10.06099,3.090203 -2.12673,1.633647 -3.65641,4.104841 -5.2641,5.736476 -1.39852,1.414606 -2.24998,2.048485 -3.03534,2.258641 -2.53146,0.677394 -4.00641,0.01878 -4.9368,-2.20401 -0.90258,-2.156466 -0.5844,-4.139172 0.95136,-5.926415 0.99765,-1.161008 2.05618,-1.633061 3.62114,-1.614068 1.3895,0.01686 2.1392,0.44369 2.13961,1.218067 3.9e-4,0.778449 0.66678,1.197106 1.35324,0.849963 1.55111,-1.741763 -0.78334,-4.058265 -2.44613,-4.307067 -0.34898,-0.03969 -0.69463,-0.04302 -1.03508,-0.01507 z"
       id="path870" />
    <g
       id="g5540"
       transform="matrix(0.99999874,0,0,0.99496239,-5.9710635,-5.3414303)"
       style="stroke-width:1.00252831">
      <path
         style="fill:#000000;fill-rule:evenodd;stroke:none;stroke-width:0.26525226"
         id="path2012"
         d="m 68.151091,78.714346 c 1.92358,0.340506 2.185623,-4.848311 -0.03857,-5.227104 -9.321462,-1.586626 -16.778046,3.165922 -23.253196,8.617452 0,0 0,0 -7e-6,-2e-6 -2.352762,1.986505 -4.409247,4.196509 -6.577615,6.135691 -2.17316,1.926712 -4.474425,3.641543 -7.104229,4.484832 -4.637271,1.515086 -10.354667,0.160054 -14.824061,-3.751168 4.170873,4.368826 10.027538,6.586394 15.336034,5.558394 2.981734,-0.591522 5.680927,-2.094617 8.131749,-3.833239 2.45572,-1.726218 4.719704,-3.659221 7.073749,-5.203131 v 0 c 6.453233,-4.245638 14.325007,-8.008632 21.256142,-6.781725 z" />
      <path
         style="fill:#000000;fill-rule:evenodd;stroke:none;stroke-width:0.26525226"
         id="path2016"
         d="m 67.672099,84.809425 c 1.976298,-0.224746 -0.722497,-4.750299 -3.703149,-3.955133 -1.750538,0.466979 -3.576375,1.675646 -4.482458,3.076759 -0.90284,1.402901 -1.143696,3.098233 -0.730995,4.890022 0.616843,2.587503 2.52024,5.216125 5.15121,7.395397 v 0 c 2.62671,2.170432 5.844936,3.85 9.086378,4.88466 3.235799,1.0315 6.438621,1.43797 9.278389,1.30245 v 0 c 2.837174,-0.13569 5.307968,-0.78789 7.326147,-1.78969 2.165549,-1.073328 3.829368,-2.548763 4.89174,-4.301898 -1.395671,1.570462 -3.337256,2.788425 -5.656963,3.5785 -2.16346,0.735438 -4.661853,1.101618 -7.321048,0.984918 v 0 c -2.656276,-0.11659 -5.483878,-0.70824 -8.088635,-1.756742 -2.598536,-1.045271 -5.016081,-2.546125 -6.719134,-4.230118 v 0 c -1.69823,-1.674446 -2.768617,-3.573458 -2.852921,-5.151921 -0.07441,-1.102896 0.151429,-2.700265 0.862352,-3.437809 0.707679,-0.739331 1.334909,-1.304708 2.959087,-1.489395 z" />
      <g
         transform="matrix(0.72236254,0.06365663,0.06358262,-0.72320312,-109.60872,280.28395)"
         id="g2028"
         style="stroke-width:0.28788963">
        <path
           d="m 251.28939,289.8522 c 5.7351,6.56498 15.1185,-9.67673 -1.57723,-14.86478 -10.1941,-3.16773 -29.97547,12.85243 -29.97547,12.85243 14.13205,-7.94278 28.312,-1.69729 31.5527,2.01235 z"
           id="path2024"
           style="fill:#000000;fill-rule:evenodd;stroke:none;stroke-width:0.28788963" />
        <path
           d="m 251.32674,286.72076 c 4.17529,4.59994 11.0066,-5.41282 -1.14825,-9.75361 -7.42153,-2.65041 -21.82281,6.61514 -21.82281,6.61514 10.28845,-4.34298 20.61176,0.53921 22.97106,3.13847 z"
           id="path2026"
           style="fill:#ffffff;fill-rule:evenodd;stroke:none;stroke-width:0.28788963" />
      </g>
    </g>
    <g
       id="g3231"
       transform="matrix(0.99999874,0,0,1,1.736504e-6,2.1166672)">
      <path
         id="path312"
         d="m 50.895438,25.169664 c -0.841809,0 -2.379666,0.411717 -4.613624,1.236265 -2.233959,0.824054 -4.117068,1.70702 -5.649655,2.648865 -2.330933,1.393508 -4.284951,2.825045 -5.860185,4.296834 -1.87784,1.766148 -2.816558,3.296648 -2.816558,4.591624 0,2.197805 0.852022,3.895626 2.557642,5.092071 1.855837,1.294976 4.662161,1.942759 8.41784,1.942759 v -0.412089 c 0,-0.195827 -0.03269,-0.342881 -0.09761,-0.441412 C 39.703732,43.81096 37.5453,43.016125 36.35851,41.74041 c -0.755428,-0.804298 -1.133245,-1.873862 -1.133245,-3.20835 0.02119,-0.411903 0.03226,-0.696091 0.03226,-0.853888 0,-1.333747 0.712562,-2.814995 2.137037,-4.443843 1.424475,-1.628598 3.22644,-3.021365 5.406886,-4.179535 0.215409,-0.156809 0.409717,-0.113116 0.582752,0.132347 0.17249,0.24571 0.258904,0.59347 0.258904,1.044884 L 43.416462,58.84093 c 0,0.49117 -0.285992,1.04516 -0.857791,1.66301 -0.572072,0.61835 -1.117338,1.00576 -1.635354,1.16257 -0.90673,0.19657 -1.543126,0.324 -1.910381,0.38277 -0.647044,0.13754 -0.97111,0.47095 -0.97111,1.00089 0.08638,0.15731 0.205229,0.29391 0.356532,0.4117 0.172219,0.039 0.398647,0.0782 0.679521,0.11769 0.280603,0.0393 0.712704,0.059 1.29537,0.059 0.604125,0 1.273193,-0.0342 2.007161,-0.10264 0.733425,-0.0684 1.564673,-0.19178 2.493134,-0.3681 1.553775,-0.29436 2.719344,-0.73602 3.496504,-1.32424 0.862998,-0.66725 1.294957,-1.53083 1.294957,-2.59022 l 0.45329,-26.254825 c 0,-1.255466 0.26966,-2.413404 0.809407,-3.473042 0.798347,-1.569332 2.028882,-2.354848 3.691312,-2.354848 2.028328,0 3.452748,0.588747 4.273641,1.766425 0.647315,0.922337 0.971109,2.285872 0.971109,4.090789 l 0.22665,3.797198 c 1.100681,-0.706508 2.676187,-1.422539 4.726516,-2.148803 0.669048,-0.235585 1.565119,-0.529944 2.687531,-0.882827 l 0.03267,-3.855806 c 0,-0.980863 0.382816,-1.760606 1.149381,-2.340185 0.766022,-0.578097 1.75307,-0.868164 2.962136,-0.868164 1.057217,0 1.975031,0.205983 2.752461,0.618133 1.359824,0.706261 2.427757,2.001331 3.204918,3.885517 1.03603,2.472161 1.55386,5.847397 1.55386,10.124724 0,1.550317 -0.210099,3.218301 -0.631139,5.00371 -0.420766,1.785408 -0.847458,3.531816 -1.27882,5.238696 -0.432178,1.707373 -0.64727,3.012754 -0.64727,3.91484 0,0.117792 0.0046,0.255279 0.01613,0.412088 0.01034,0.157304 0.02692,0.333699 0.04839,0.529774 0.259413,2.315346 0.625736,4.022986 1.100561,5.121396 0.366982,0.86356 0.777616,1.38357 1.230437,1.56038 0.453364,0.17632 0.949595,0.30396 1.489342,0.38199 0.539474,0.0783 1.046669,0.11808 1.522036,0.11808 0.647316,0 1.316373,-0.0494 2.007151,-0.1474 0.690779,-0.0978 1.176483,-0.16161 1.457086,-0.19099 0.280062,-0.0297 0.561058,-0.0587 0.841661,-0.0884 0.280057,-0.0294 0.377269,-0.15164 0.29116,-0.36771 -1.72681,-1.13792 -3.12975,-2.24664 -4.208701,-3.32604 -1.187332,-1.17718 -1.780941,-2.531038 -1.780941,-4.061846 0,-0.824054 0.324229,-2.197543 0.971544,-4.1205 0.90646,-2.707993 1.510582,-4.630827 1.813189,-5.769241 0.668776,-2.609214 1.003783,-5.042311 1.003783,-7.299136 0,-3.139158 -1.122922,-5.975038 -3.367475,-8.506465 -2.374669,-2.688238 -5.234038,-4.03214 -8.579542,-4.03214 -2.892682,0 -5.234493,0.490525 -7.02568,1.471635 -0.582932,0.31436 -1.19801,0.804637 -1.845868,1.471634 -0.690778,-0.608224 -1.306247,-1.059346 -1.845449,-1.35395 -1.66216,-0.921844 -3.496515,-1.383662 -5.503654,-1.383662 -1.468209,0 -2.806497,0.284929 -4.014747,0.853889 -0.863541,0.41215 -1.554351,0.902921 -2.072095,1.471635 l -0.03268,-1.707004 c 0,-0.176318 0.210521,-0.353455 0.631561,-0.529774 0.420769,-0.176812 0.63156,-0.392749 0.63156,-0.647843 0,-0.136807 -0.16218,-0.205658 -0.485973,-0.205658 z m 20.041008,9.094887 c -1.187335,0 -2.601085,0.274587 -4.240969,0.823791 -0.432177,0.137301 -1.327271,0.490973 -2.687096,1.059933 -1.144414,0.431659 -2.666363,1.314239 -4.565662,2.648479 -2.87068,2.021487 -4.414056,3.100866 -4.629739,3.237674 -1.683617,1.059885 -3.010681,1.589317 -3.982062,1.589317 l 0.06452,1.118582 c 1.359552,0 2.795198,-0.460443 4.306324,-1.383274 0.733425,-0.45092 1.963808,-1.40263 3.690888,-2.854911 1.402743,-1.177184 2.471219,-1.932478 3.204915,-2.2661 1.510855,-0.628226 2.816743,-1.079102 3.917968,-1.353951 1.100952,-0.274849 2.007128,-0.412473 2.719365,-0.412473 0.194222,0 0.344645,0.0054 0.453301,0.01505 0.107844,0.01013 0.33442,0.04387 0.679945,0.102638 1.057487,0.177059 2.06628,0.731294 3.027067,1.663015 0.960244,0.932463 1.44097,1.87914 1.44097,2.840248 0,1.452527 -0.647739,2.590585 -1.942645,3.414392 -0.776071,0.490184 -2.145151,0.999538 -4.10557,1.52874 0.06193,-0.01506 0.11324,0.02504 0.155345,0.119614 0.04292,0.09828 0.06493,0.225954 0.06493,0.382763 0,0.333623 -0.0054,0.544638 -0.0157,0.632797 -0.01141,0.08841 -0.03858,0.171996 -0.08149,0.250031 1.25144,-0.27485 2.352611,-0.696138 3.302532,-1.265591 1.230252,-0.725523 2.331006,-1.746221 3.302114,-3.060954 0.496285,-0.726017 0.809975,-1.206724 0.939274,-1.442309 0.474281,-0.8243 0.712207,-1.726542 0.712207,-2.707899 0,-0.941599 -0.458974,-1.858937 -1.376024,-2.751888 -0.917871,-0.892457 -1.948143,-1.496161 -3.092012,-1.810027 -0.345253,-0.07828 -0.766412,-0.117683 -1.262697,-0.117684 z m -3.20534,3.237288 c -0.712509,0.157304 -1.284211,0.294297 -1.715574,0.412089 -1.295174,0.35313 -2.288329,0.7068 -2.979107,1.059931 -0.820621,0.431905 -1.403123,0.775236 -1.747833,1.029836 -0.518287,0.372886 -0.777138,0.676951 -0.777138,0.912536 l -0.03226,20.102819 c 0,0.78504 -0.377818,1.27581 -1.133245,1.47164 -0.280602,0.0788 -0.820447,0.19638 -1.618794,0.35344 -0.237685,0.0395 -0.56163,0.0981 -0.971533,0.17633 v 0.67717 c 0.344982,-0.0985 1.20324,-0.18163 2.574202,-0.25003 1.370147,-0.0687 3.274858,-0.10341 5.714175,-0.10341 0.992297,0 2.444554,0.0492 4.354719,0.14701 1.910437,0.098 2.918953,0.1474 3.027068,0.1474 -0.06466,-0.49044 -0.21615,-0.7843 -0.453291,-0.88283 -0.410445,-0.0588 -0.72345,-0.0983 -0.938861,-0.11807 -0.647584,-0.098 -1.079533,-0.21551 -1.294944,-0.35305 -0.431905,-0.17632 -0.863747,-0.35321 -1.29538,-0.52978 -0.496556,-0.2746 -0.744465,-0.62789 -0.744465,-1.05954 z m -10.716579,5.945572 -1.877709,1.795749 c 0.625585,0.666997 1.230372,1.187218 1.812767,1.55961 0.733967,0.470923 1.661886,0.863857 2.784298,1.17723 v -2.295426 c -0.517743,0.03926 -1.057588,-0.274509 -1.618794,-0.942247 -0.366984,-0.431165 -0.733578,-0.86301 -1.100562,-1.294916 z"
         style="fill:#000000;stroke:none;stroke-width:0.28222224" />
      <path
         id="path280"
         d="m 99.288146,27.359237 c -0.818809,0 -1.623314,0.03772 -2.414183,0.113605 -0.791052,0.07556 -1.457113,0.182722 -1.998102,0.321469 -1.706603,0.466884 -3.03888,1.078627 -3.996174,1.835547 -0.874173,0.681038 -1.519307,1.558003 -1.935613,2.630041 -0.02813,0.05064 -0.05206,0.129232 -0.07285,0.236389 -0.02096,0.107315 -0.03137,0.230257 -0.03137,0.368845 0,0.264954 0.3053,1.16718 0.915957,2.705944 0.291456,0.731679 0.436841,1.362353 0.436841,1.892101 l 0.04174,4.25723 c 0.277305,0.101281 0.603602,0.189189 0.97818,0.264913 0.374913,0.07556 0.714496,0.113605 1.019908,0.113605 0.374577,0 0.749142,-0.0569 1.123886,-0.170407 l -0.145427,-6.622604 c -0.416488,-0.52959 -0.721789,-0.952242 -0.915972,-1.26752 -0.610837,-0.971232 -0.915691,-1.765806 -0.915691,-2.383978 0,-0.201613 0.02759,-0.37216 0.08295,-0.511225 0.249881,-0.605472 0.766645,-1.087536 1.550879,-1.447105 0.783717,-0.359569 1.689098,-0.539503 2.716243,-0.539503 1.914757,0 3.517178,0.271304 4.807652,0.813594 0.79105,0.328295 1.63731,0.877143 2.53942,1.646287 0.18021,-0.352901 0.3191,-0.630763 0.41638,-0.832693 0.16641,-0.327819 0.34652,-0.655617 0.54106,-0.983754 0.0831,-0.151447 0.3398,-0.460316 0.77026,-0.927199 0.3049,-0.340519 0.43665,-0.636835 0.39509,-0.889248 -0.0833,-0.06302 -0.20793,-0.09475 -0.37436,-0.09475 -0.15297,0 -0.28848,0.01911 -0.40599,0.05705 -0.11823,0.03778 -0.19097,0.06302 -0.21856,0.07541 -0.52772,-0.227012 -1.21773,-0.393987 -2.07095,-0.501303 -0.8534,-0.106997 -1.8006,-0.160734 -2.841194,-0.160734 z m -1.789906,8.173889 c -1.221146,0 -2.483894,0.138886 -3.787994,0.416222 0.01341,0.138907 0.02749,0.284034 0.04146,0.435323 0.01383,0.151447 0.03483,0.252293 0.06277,0.302617 l 1.061385,-0.01885 c 1.470692,0 2.812944,0.302627 4.027286,0.908099 1.213993,0.605631 2.084583,1.494829 2.612293,2.667992 -0.0279,0.06334 -0.0487,0.107464 -0.0625,0.132705 -0.11123,0.227012 -0.16672,0.403534 -0.16672,0.52958 0,0.113506 0.0419,0.202049 0.12498,0.264914 0.18021,0.113506 0.39557,-0.03777 0.64529,-0.454174 0.0417,-0.06287 0.0971,-0.163801 0.16644,-0.302866 0.4301,-0.479106 0.74928,-0.838546 0.95743,-1.078258 0.66585,-0.756762 1.0267,-1.185496 1.08241,-1.28662 -0.5553,-0.643256 -1.24897,-1.163857 -2.08158,-1.561208 -0.83245,-0.397351 -1.65127,-0.655627 -2.455937,-0.775642 -0.804844,-0.119698 -1.547377,-0.179834 -2.227018,-0.179834 z m -7.888412,1.475879 c -0.249532,0.101124 -0.468009,0.205134 -0.655389,0.31229 -0.187198,0.107316 -0.392138,0.24903 -0.613911,0.425401 -0.430458,0.366078 -0.76335,0.766653 -0.998911,1.201787 -0.236093,0.435292 -0.354168,0.854642 -0.354168,1.258342 0,0.744379 0.256685,1.349792 0.770265,1.816199 0.374563,0.353378 0.922383,0.649942 1.643933,0.889496 0.943492,0.340522 1.915203,0.510972 2.914059,0.510972 0.374744,0 0.76311,-0.0254 1.165614,-0.0759 0.402336,-0.0502 0.811531,-0.13246 1.227837,-0.24581 0.637899,-0.176532 1.137815,-0.517289 1.498772,-1.021956 0.319215,-0.454025 0.478585,-0.958274 0.478585,-1.513582 -0.05536,-0.227012 -0.138598,-0.340568 -0.249658,-0.340568 -0.0833,0 -0.163435,0.06014 -0.239573,0.179835 -0.07631,0.120015 -0.163015,0.350043 -0.259757,0.690562 -0.180381,0.59309 -0.562153,1.021507 -1.144884,1.286619 -0.582716,0.264636 -1.290618,0.397371 -2.123049,0.397371 -0.513579,0 -1.006105,-0.03465 -1.477775,-0.10418 -0.471655,-0.06921 -1.002725,-0.182682 -1.59209,-0.340321 -0.590051,-0.157638 -1.037356,-0.441492 -1.342419,-0.851543 -0.305426,-0.409734 -0.458119,-0.867282 -0.458119,-1.371949 0,-0.693737 0.249826,-1.255205 0.749253,-1.683989 0.06915,-0.06287 0.319061,-0.264964 0.749518,-0.605483 0.291093,-0.227171 0.443869,-0.371732 0.457839,-0.435074 z m 0.853483,6.754817 c 0,1.79133 -0.08672,2.98356 -0.260303,3.57634 -0.173396,0.59308 -0.537719,1.02813 -1.092495,1.30547 -0.624459,0.32829 -1.249016,0.65602 -1.873127,0.984 -0.76346,0.46672 -1.144883,0.90193 -1.144883,1.30547 0,0.3283 0.156324,0.5835 0.468205,0.76622 0.31223,0.18304 0.676651,0.27459 1.092775,0.27459 0.09692,0 0.242576,-0.0126 0.437107,-0.038 l 4.162627,-0.64318 c 1.082326,-0.22717 2.043183,-0.39116 2.882947,-0.49213 0.83943,-0.1008 1.612851,-0.1513 2.3206,-0.1513 0.150177,0 0.302771,0.005 0.455393,0.0112 0.24115,0.009 0.484131,0.0224 0.730701,0.0456 0.402508,0.0378 0.783928,0.0883 1.144885,0.1513 0.791047,0.18923 1.387317,0.34707 1.790167,0.47328 1.24875,0.39084 1.99047,0.76946 2.22675,1.13506 0.61049,-0.64325 1.08244,-1.12873 1.41527,-1.45703 0.99921,-1.00901 1.62362,-1.5895 1.87369,-1.74079 0.16641,-0.20161 0.24965,-0.34665 0.24965,-0.43507 0,-0.0379 -0.0316,-0.0787 -0.0938,-0.12304 -0.0625,-0.044 -0.11423,-0.0946 -0.15579,-0.1513 -0.0419,-0.0568 -0.10439,-0.0853 -0.18773,-0.0853 -0.15279,0 -0.35367,0.1138 -0.60354,0.34081 -0.0833,0.0756 -0.20117,0.18912 -0.35363,0.34057 -0.79105,-0.52991 -1.57862,-0.89219 -2.36234,-1.08793 -0.78406,-0.19542 -1.69665,-0.29319 -2.73725,-0.29319 -0.38714,0 -0.80826,0.0308 -1.260027,0.0895 -0.552157,0.0718 -1.150719,0.18599 -1.799459,0.34553 -0.735687,0.17669 -1.651393,0.46046 -2.74734,0.8513 -0.402503,0.15145 -0.804756,0.30272 -1.207092,0.45417 -0.291442,0.0756 -1.276858,0.42894 -2.955521,1.05966 -0.541338,0.20177 -1.138038,0.34713 -1.789906,0.43507 -0.05571,0.0127 -0.11109,0.0191 -0.166453,0.0191 h -0.125226 c -0.319216,0 -0.565381,-0.0504 -0.738609,-0.15156 -0.173577,-0.10081 -0.260302,-0.24584 -0.260302,-0.43508 0,-0.1008 0.04843,-0.22723 0.145692,-0.37852 0.180395,-0.27717 1.124054,-0.73771 2.830839,-1.38112 1.27616,-0.50451 1.963036,-0.87044 2.06031,-1.09761 0.138652,-0.98377 0.312174,-2.23241 0.520327,-3.74625 -0.180395,0.0506 -0.36424,0.0821 -0.551438,0.0945 -0.187366,0.0127 -0.392138,0.0189 -0.613912,0.0189 -0.388715,0 -0.790967,-0.0312 -1.207106,-0.0945 -0.139001,-0.0124 -0.312439,-0.0441 -0.520592,-0.0947 z"
         style="fill:#000000;stroke:none;stroke-width:0.28222224" />
      <path
         id="path312-4"
         d="m 119.58677,26.961849 c -1.51394,0 -2.97244,0.258843 -4.37518,0.775891 -1.30557,0.479742 -2.50016,1.160761 -3.5834,2.043411 -1.15281,0.933608 -2.00712,1.810007 -2.56245,2.629792 -0.47249,0.694055 -0.7085,1.32466 -0.7085,1.892351 0,0.94615 0.19429,1.621016 0.58339,2.024558 0.31921,0.328136 0.88199,0.561331 1.68765,0.700235 0.11098,0.02523 0.27756,0.03771 0.50009,0.03771 0.41672,0 0.81921,-0.100937 1.20832,-0.302867 0.27756,-0.138593 0.66673,-0.409648 1.1665,-0.81335 0.86108,-0.693735 1.40978,-1.091147 1.64612,-1.192112 0.0832,-0.03778 0.15281,-0.0568 0.2084,-0.0568 0.13878,0 0.23243,0.08223 0.28105,0.246061 0.0487,0.163991 0.0729,0.391101 0.0729,0.681138 0,0.101281 -0.003,0.198665 -0.01,0.293441 -0.007,0.09461 -0.01,0.185826 -0.01,0.274091 l -0.14585,6.338839 c 0,0.163988 -0.008,0.302466 -0.0208,0.415973 -0.0558,0.454344 -0.0836,0.688012 -0.0836,0.700235 0,0.20193 0.0558,0.309178 0.1669,0.321719 l 2.52121,-0.473026 0.33292,-0.264914 0.16689,-9.233547 c 0,-0.390841 0.0311,-0.693716 0.0937,-0.908346 0.0626,-0.214314 0.17001,-0.340332 0.32312,-0.378271 l 0.99963,-0.265162 c 0.1804,-0.03794 0.27095,-0.10059 0.27095,-0.189013 0,-0.03778 -0.0136,-0.09484 -0.0415,-0.170408 -0.11116,-0.05016 -0.26394,-0.07565 -0.45831,-0.07565 -0.48665,0 -1.12514,0.142051 -1.91681,0.425896 -0.79167,0.283687 -1.69472,0.715973 -2.70857,1.296044 -0.56967,0.328295 -1.40991,0.952661 -2.52094,1.87325 -0.68068,0.567532 -1.27083,0.851546 -1.77092,0.851546 -0.11136,-0.01239 -0.1945,-0.01911 -0.24991,-0.01911 -0.5001,-0.05032 -0.87505,-0.255428 -1.12502,-0.615157 -0.25013,-0.35941 -0.37499,-0.80384 -0.37499,-1.333746 0,-0.794704 0.22895,-1.500982 0.68745,-2.119314 0.91665,-1.248729 2.0346,-2.200958 3.35451,-2.856755 1.31938,-0.655955 2.70825,-0.98425 4.16679,-0.98425 2.62496,0 4.86798,0.807531 6.72925,2.422175 2.12502,1.841819 3.1879,4.339503 3.1879,7.492755 0,0.832643 -0.10406,1.791276 -0.31247,2.875856 -0.20853,1.085054 -0.42019,2.166648 -0.63555,3.245197 -0.21534,1.078546 -0.3231,1.920477 -0.3231,2.526109 0,0.315276 0.0136,0.542389 0.0418,0.681135 0.11101,1.021715 0.22907,2.043244 0.35424,3.065117 0.15258,0.542609 0.64598,1.084899 1.47924,1.627189 0.40274,0.264795 0.96511,0.397369 1.68736,0.397369 0.30539,0 0.65948,-0.02841 1.06274,-0.08508 0.40255,-0.05668 0.81945,-0.110817 1.24982,-0.160982 0.2641,0 0.46188,-0.02201 0.59404,-0.06598 0.13197,-0.04413 0.17689,-0.135523 0.13548,-0.274588 -0.5697,-0.36576 -1.18767,-0.895181 -1.85454,-1.589236 -0.45831,-0.466409 -0.95812,-1.034277 -1.5,-1.703092 -0.69465,-0.933132 -1.0417,-1.898162 -1.0417,-2.894954 0,-0.756762 0.18754,-1.954807 0.56265,-3.594696 0.0972,-0.416402 0.44413,-1.835585 1.04141,-4.257475 0.38859,-1.576547 0.58368,-2.566752 0.58368,-2.970612 0,-2.636362 -1.2158,-4.736473 -3.64621,-6.300636 -2.08327,-1.337154 -4.47251,-2.005958 -7.16705,-2.005958 z m 2.97949,13.339714 c -0.20818,0.0254 -0.38908,0.08481 -0.54188,0.179587 -0.15292,0.09461 -0.20817,0.217644 -0.16658,0.369093 0.0136,0.08826 0.0833,0.189111 0.2084,0.302618 0.12495,0.113507 0.18788,0.227062 0.18788,0.340569 0,0.353376 -0.0492,0.618211 -0.14637,0.794741 -0.18075,0.315437 -0.57281,0.64032 -1.17689,0.974327 -0.60429,0.334329 -1.53854,0.665452 -2.80199,0.993428 -0.8616,0.226856 -1.88945,0.454214 -3.08386,0.681386 -0.93061,0.176849 -1.41671,0.264665 -1.45849,0.264665 -0.88902,0.239714 -1.7601,0.570834 -2.61432,0.993428 -0.85409,0.422752 -1.44122,0.797907 -1.76057,1.125886 -0.45852,0.466883 -0.79896,0.917713 -1.02096,1.352846 -0.22253,0.435294 -0.33348,0.924165 -0.33348,1.466455 0,0.807401 0.31576,1.450696 0.948,1.929805 0.63211,0.479583 1.48983,0.71884 2.57341,0.71884 1.30505,0 2.77072,-0.49179 4.39564,-1.475882 1.62512,-0.983615 2.75681,-2.011451 3.39605,-3.083966 v -0.283766 c -0.31953,-0.239553 -0.53477,-0.718789 -0.64594,-1.437928 -0.0279,-0.239392 -0.049,-0.58006 -0.0626,-1.021704 -0.76404,0.113665 -1.47209,0.258702 -2.12461,0.435074 -0.22253,0.06318 -0.49365,0.151409 -0.81282,0.264916 0,0.3783 -0.0177,0.845552 -0.0521,1.400223 -0.0346,0.555309 -0.0519,0.870329 -0.0519,0.946052 0,1.273968 -0.54175,2.239159 -1.62536,2.894954 -0.76385,0.466725 -1.56942,0.700238 -2.41631,0.700238 -0.81982,0 -1.46232,-0.186086 -1.92747,-0.558354 -0.46566,-0.371794 -0.69809,-0.860894 -0.69809,-1.466207 0,-0.580071 0.21541,-1.198532 0.64594,-1.854646 0.27795,-0.428467 0.79832,-0.876698 1.56253,-1.343423 0.8193,-0.50419 1.66666,-0.851326 2.54171,-1.040556 0.13879,0 0.75714,-0.100685 1.85453,-0.302615 1.40274,-0.252256 2.68771,-0.548731 3.85432,-0.889249 1.55536,-0.441325 2.65263,-0.908575 3.29171,-1.400226 0.55551,-0.41656 0.89594,-0.681146 1.02093,-0.794492 0.34714,-0.328137 0.52083,-0.643563 0.52083,-0.9463 0,-0.16383 -0.0488,-0.315109 -0.14585,-0.454174 -0.13911,-0.239395 -0.33341,-0.428874 -0.58339,-0.56778 -0.24996,-0.138589 -0.49985,-0.207863 -0.75,-0.207863 z"
         style="fill:#000000;stroke:none;stroke-width:0.28222224" />
      <path
         id="path232"
         d="m 151.64084,27.207785 c -1.51258,0.504825 -2.81692,1.192084 -3.91269,2.062509 -1.02714,0.807403 -2.10925,1.740633 -3.24694,2.800449 -1.13784,1.059497 -1.70666,1.671379 -1.70666,1.835051 0.0552,0.265113 0.13166,0.40393 0.22892,0.416469 0.99901,-1.047115 1.69257,-1.734372 2.08131,-2.062509 0.48563,-0.416083 1.31122,-0.996323 2.47666,-1.740542 0.0553,0 0.10428,0.01586 0.14597,0.04713 0.0416,0.03159 0.0623,0.129519 0.0623,0.293189 l 0.12498,18.751105 c 0,0.239714 -0.0349,0.463588 -0.10428,0.671711 -0.0696,0.20828 -0.17338,0.419447 -0.31187,0.633761 -0.22212,0.378459 -0.61759,0.650011 -1.18636,0.813842 -0.43043,0.126204 -0.97168,0.189258 -1.62372,0.189258 -0.4027,0 -0.70424,-0.0095 -0.90507,-0.02852 -0.20132,-0.01875 -0.4199,-0.05329 -0.65565,-0.103935 -0.92988,-0.126049 -1.76954,-0.40375 -2.51871,-0.832694 -0.472,-0.277495 -1.11008,-0.769442 -1.91457,-1.475879 -0.90212,-0.807246 -1.54033,-1.766124 -1.91488,-2.876104 -0.31938,-0.933292 -0.47886,-2.062291 -0.47886,-3.386585 0,-1.122681 0.22163,-2.538632 0.66603,-4.248052 0.44371,-1.7091 0.89476,-3.412143 1.35279,-5.109021 0.45787,-1.696401 0.68705,-2.979917 0.68705,-3.850183 0,-0.74422 -0.26379,-1.412864 -0.79099,-2.005954 -0.16661,-0.189072 -0.43024,-0.415935 -0.79101,-0.680892 -0.8188,0.214792 -1.43624,0.403702 -1.85239,0.567532 -1.2627,0.491967 -1.95655,1.028424 -2.08156,1.608337 0.62446,0.366237 1.01292,0.643215 1.16588,0.832445 0.15246,0.189388 0.22892,0.492105 0.22892,0.90835 0,0.416241 -0.14234,1.264798 -0.42646,2.544958 -0.28465,1.280318 -0.5724,2.611278 -0.86384,3.992564 -0.29145,1.381125 -0.43711,2.418825 -0.43711,3.112245 0,0.820259 0.0519,1.555033 0.15606,2.204638 0.10406,0.649766 0.30172,1.31484 0.59316,1.996035 0.52704,1.261586 1.16529,2.409537 1.91461,3.443635 0.74932,1.034574 1.50547,1.835387 2.26876,2.403078 1.01267,0.693897 2.05343,1.172814 3.12198,1.437928 0.666,0.163829 1.38077,0.24606 2.14406,0.24606 h 0.45784 c 1.30412,0 2.63968,-0.255446 4.00629,-0.766461 1.36679,-0.510541 2.78562,-1.258164 4.25647,-2.242097 0.0136,-0.08795 -0.10384,-0.18264 -0.3536,-0.283763 -0.16658,-0.05016 -0.27425,-0.08821 -0.3228,-0.113606 -0.0487,-0.02523 -0.0937,-1.778694 -0.13532,-5.260084 -0.0417,-3.481547 -0.0694,-6.48081 -0.0833,-8.997156 -0.014,-2.516506 -0.0208,-4.670445 -0.0208,-6.46162 0,-0.08811 0.097,-0.182575 0.29141,-0.284017 0.19437,-0.100646 0.32587,-0.214113 0.39535,-0.340317 0.0276,-0.03794 0.0415,-0.0946 0.0415,-0.170161 0,-0.113507 -0.0346,-0.22731 -0.10395,-0.340817 -0.014,-0.03778 -0.0557,-0.08797 -0.12497,-0.151308 z m -8.42919,0.07565 c -0.77726,0 -1.40174,0.397253 -1.8734,1.192115 -0.38852,0.656113 -0.5828,1.37517 -0.5828,2.157013 0,0.694055 0.13175,1.463548 0.39562,2.308572 0.34662,1.09728 0.94342,2.453234 1.79019,4.067723 0.42974,0.845343 0.86678,1.684198 1.31103,2.516683 0.40218,0.78232 0.71077,1.50762 0.92609,2.176117 0.21495,0.668655 0.32276,1.317941 0.32276,1.948654 0,1.274445 -0.24304,2.258181 -0.72852,2.951759 -0.43027,0.618171 -0.98528,0.927199 -1.66493,0.927199 -1.19357,0 -2.10954,-0.460462 -2.74763,-1.381373 -0.56907,-0.832485 -0.85319,-1.885335 -0.85319,-3.159622 0,-0.908208 0.26015,-1.999099 0.78036,-3.273225 0.52037,-1.274129 1.05778,-2.548026 1.61311,-3.822155 -0.014,-0.176688 -0.0766,-0.265162 -0.18745,-0.265162 -0.0697,0 -0.15293,0.03189 -0.24966,0.09475 -0.0279,0.0127 -0.0696,0.05033 -0.12498,0.113358 -0.76311,1.147922 -1.36674,2.359174 -1.81065,3.633142 -0.48581,1.387475 -0.72852,2.712034 -0.72852,3.973464 0,1.412875 0.36764,2.541964 1.10314,3.386833 0.8604,0.996789 1.92861,1.494728 3.20547,1.494728 1.16543,0 2.00475,-0.460463 2.51814,-1.381371 0.4163,-0.74422 0.62458,-1.78461 0.62458,-3.12192 0,-0.592613 -0.12502,-1.277273 -0.37493,-2.053085 -0.24969,-0.775652 -0.5688,-1.579857 -0.95716,-2.412504 -0.27782,-0.59277 -0.64526,-1.30543 -1.10314,-2.137915 -0.73569,-1.450498 -1.23532,-2.48505 -1.49848,-3.103064 -0.56929,-1.374936 -0.85347,-2.522887 -0.85347,-3.443637 0,-0.618015 0.20468,-1.16978 0.61418,-1.655713 0.40914,-0.485459 0.91894,-0.728514 1.52959,-0.728514 0.2635,0 0.46828,0.06613 0.61394,0.198684 0.14563,0.132399 0.30864,0.198688 0.48919,0.198688 0.0832,0 0.14207,-0.05982 0.17684,-0.179835 0.0345,-0.119857 0.0521,-0.267654 0.0521,-0.4445 0,-0.290037 -0.17013,-0.491818 -0.50994,-0.605483 -0.34019,-0.113346 -0.746,-0.170408 -1.21748,-0.170408 z"
         style="fill:#000000;stroke:none;stroke-width:0.28222224" />
    </g>
  </g>
</svg>
