<?xml version="1.0" encoding="UTF-8" standalone="no"?>
<!-- Created with Inkscape (http://www.inkscape.org/) -->

<svg
   xmlns:dc="http://purl.org/dc/elements/1.1/"
   xmlns:cc="http://creativecommons.org/ns#"
   xmlns:rdf="http://www.w3.org/1999/02/22-rdf-syntax-ns#"
   xmlns:svg="http://www.w3.org/2000/svg"
   xmlns="http://www.w3.org/2000/svg"
   xmlns:sodipodi="http://sodipodi.sourceforge.net/DTD/sodipodi-0.dtd"
   xmlns:inkscape="http://www.inkscape.org/namespaces/inkscape"
   width="24pc"
   height="23.997972pc"
   viewBox="0 0 359.99999 359.9696"
   id="svg5027"
   version="1.1"
   inkscape:version="0.91 r13725"
   sodipodi:docname="new-instagram-logo-square.svg">
  <defs
     id="defs5029" />
  <sodipodi:namedview
     id="base"
     pagecolor="#ffffff"
     bordercolor="#666666"
     borderopacity="1.0"
     inkscape:pageopacity="0.0"
     inkscape:pageshadow="2"
     inkscape:zoom="0.5"
     inkscape:cx="-240.23042"
     inkscape:cy="-372.56257"
     inkscape:document-units="px"
     inkscape:current-layer="layer1"
     showgrid="false"
     units="pc"
     fit-margin-top="2"
     fit-margin-left="2"
     fit-margin-right="2"
     fit-margin-bottom="2"
     inkscape:window-width="1920"
     inkscape:window-height="1057"
     inkscape:window-x="-8"
     inkscape:window-y="-8"
     inkscape:window-maximized="1" />
  <metadata
     id="metadata5032">
    <rdf:RDF>
      <cc:Work
         rdf:about="">
        <dc:format>image/svg+xml</dc:format>
        <dc:type
           rdf:resource="http://purl.org/dc/dcmitype/StillImage" />
        <dc:title></dc:title>
      </cc:Work>
    </rdf:RDF>
  </metadata>
  <g
     inkscape:label="Camada 1"
     inkscape:groupmode="layer"
     id="layer1"
     transform="translate(-77.12909,-99.75057)">
    <path
       style="fill:#000000"
       d="m 147.552,129.75057 c -22.3256,0 -40.42291,18.09653 -40.42291,40.42338 l 0,219.12282 c 0,22.32685 18.09653,40.42338 40.42291,40.42338 0,0 16.95169,0 219.15421,0 22.32559,0 40.42288,-18.09653 40.42288,-40.42338 l 0,-219.12282 c -7.6e-4,-22.32685 -18.09653,-40.42338 -40.42288,-40.42338 l -219.15421,0 z m 109.56172,49.92432 c 27.17255,0 30.57894,0.15683 41.25043,0.61196 10.64939,0.48643 17.93916,2.15281 24.30283,4.6273 6.57974,2.55608 12.1515,5.99242 17.71366,11.55492 5.56235,5.56248 8.96667,11.13438 11.52322,17.71366 2.47402,6.3643 4.17179,13.65282 4.65822,24.30234 0.48798,10.67151 0.61351,14.07804 0.61351,41.25029 0,27.17381 -0.1256,30.57879 -0.61351,41.25028 -0.48643,10.64954 -2.1842,17.90824 -4.65822,24.27254 -2.55655,6.57928 -5.96087,12.15118 -11.52322,17.71366 -5.56216,5.5625 -11.13392,8.99569 -17.71366,11.55335 -6.36367,2.47292 -13.65344,4.17226 -24.30283,4.65869 -10.67164,0.42365 -14.07788,0.58057 -41.25043,0.58057 -27.17257,0 -30.57878,-0.15683 -41.2503,-0.58057 -10.64954,-0.48643 -17.90853,-2.18577 -24.2722,-4.65869 -6.57976,-2.55766 -12.18225,-5.99085 -17.74442,-11.55335 -5.56234,-5.56248 -8.96653,-11.13438 -11.52306,-17.71366 -2.47402,-6.3643 -4.17195,-13.623 -4.65838,-24.27254 -0.488,-10.67149 -0.61351,-14.07647 -0.61351,-41.25028 0,-27.17225 0.1256,-30.57878 0.61351,-41.25029 0.48643,-10.64952 2.18436,-17.93804 4.65838,-24.30234 2.55653,-6.57928 5.96072,-12.15118 11.52306,-17.71366 5.56217,-5.5625 11.16466,-8.99884 17.74442,-11.55492 6.36367,-2.47449 13.62266,-4.14087 24.2722,-4.6273 10.67152,-0.43936 14.07773,-0.61196 41.2503,-0.61196 z m 0,18.01966 c -26.71502,0 -29.87236,0.15683 -40.4229,0.58055 -9.75468,0.43935 -15.04618,2.09791 -18.57182,3.46303 -4.67028,1.81546 -8.02236,3.97769 -11.52321,7.47838 -3.50067,3.50067 -5.66258,6.82246 -7.47773,11.49214 -1.36983,3.52579 -2.98681,8.84819 -3.43243,18.60179 -0.4723,10.55067 -0.58215,13.70928 -0.58215,40.42335 0,26.71565 0.10988,29.87425 0.58215,40.42338 0.44562,9.75514 2.0626,15.04617 3.43243,18.57196 1.81515,4.66966 3.97706,8.0197 7.47773,11.52197 3.50085,3.50066 6.85293,5.66289 11.52321,7.47835 3.52564,1.36514 8.81714,2.99386 18.57182,3.43322 10.54897,0.42365 13.70552,0.58057 40.4229,0.58057 26.71736,0 29.87394,-0.15683 40.42288,-0.58057 9.7547,-0.43936 15.07694,-2.06808 18.60258,-3.43322 4.67028,-1.81546 7.99163,-3.97769 11.49245,-7.47835 3.50148,-3.50227 5.66339,-6.85231 7.47775,-11.52197 1.36984,-3.52579 3.01755,-8.81682 3.46319,-18.57196 0.4723,-10.54913 0.58213,-13.70773 0.58213,-40.42338 0,-26.71407 -0.10988,-29.87268 -0.58213,-40.42335 -0.44564,-9.7536 -2.0932,-15.076 -3.46319,-18.60179 -1.8142,-4.66968 -3.97627,-7.99147 -7.47775,-11.49214 -3.50082,-3.50069 -6.82217,-5.66292 -11.49245,-7.47838 -3.52564,-1.36512 -8.84788,-3.02368 -18.60258,-3.46303 -10.55052,-0.42365 -13.70788,-0.58055 -40.42288,-0.58055 z m 53.41716,16.61057 c 6.63119,0 12.0134,5.38203 12.0134,12.01308 0,6.63106 -5.38221,12.01311 -12.0134,12.01311 -6.63042,0 -12.01358,-5.38205 -12.01358,-12.01311 0,-6.63105 5.38316,-12.01308 12.01358,-12.01308 z m -53.41716,14.03566 c 28.37497,0 51.3944,23.0204 51.3944,51.39458 0,28.37576 -23.01943,51.36319 -51.3944,51.36319 -28.37497,0 -51.36382,-22.98743 -51.36382,-51.36319 0,-28.37418 22.98885,-51.39458 51.36382,-51.39458 z m 0,18.05103 c -18.41913,0 -33.34355,14.92536 -33.34355,33.34355 0,18.41977 14.92442,33.34356 33.34355,33.34356 18.41914,0 33.34356,-14.92379 33.34356,-33.34356 0,-18.41819 -14.92442,-33.34355 -33.34356,-33.34355 z"
       id="path4844"
       inkscape:connector-curvature="0" />
  </g>
</svg>
